<svg width="1206" height="132" viewBox="0 0 1206 132" fill="none" xmlns="http://www.w3.org/2000/svg">
<g clip-path="url(#clip0_54_8)">
<path d="M45.3873 20.8453C43.1665 20.8453 42.077 22.8059 42.077 25.424V31.9848H38.9453V18.1401H42.0219V21.7319H42.0752C42.7328 19.5233 44.0418 17.7385 46.0609 17.7385C47.4819 17.7385 48.0809 18.236 48.0809 18.236L46.6679 21.0878C46.6679 21.0878 46.2173 20.8453 45.3873 20.8453ZM83.2411 22.7464V31.9821H80.1912V23.8711C80.1912 21.5418 79.4625 20.3087 77.5999 20.3087C75.6714 20.3087 74.7383 21.8687 74.7383 24.8608V31.9821H71.7151V23.8702C71.7151 21.6315 70.9952 20.3078 69.1513 20.3078C67.0469 20.3078 66.2364 22.1556 66.2364 24.8599V31.9821H63.1598V18.1401H66.2364V21.2752H66.264C66.7438 19.1049 68.0511 17.7661 70.2585 17.7661C72.4473 17.7661 73.8737 18.945 74.4149 21.0345C74.9303 19.0232 76.3015 17.7652 78.4094 17.7652C81.3509 17.7652 83.242 19.613 83.242 22.7455L83.2411 22.7464ZM54.2349 17.7385C51.4045 17.7385 49.5516 19.0711 48.7074 21.4751L51.313 22.4248C51.7884 20.9741 52.7793 20.1479 54.29 20.1479C55.9909 20.1479 56.9898 20.8986 56.9898 22.049C56.9898 23.227 56.1944 23.4731 54.3984 23.7636C52.4007 24.0861 47.649 24.1918 47.649 28.2083C47.649 30.5607 49.6129 32.3313 52.5624 32.3313C54.7797 32.3313 56.2895 31.4233 56.988 29.7336H57.0156V31.9821H60.0664V23.4678C60.0646 19.7428 58.1939 17.7385 54.2349 17.7385ZM57.0698 25.4676C57.0698 28.3699 55.6355 30.2347 53.3445 30.2347C51.7244 30.2347 50.7531 29.3232 50.7531 28.0101C50.7531 26.7788 51.752 25.9233 53.6679 25.5715C55.6283 25.2108 56.6157 24.7648 57.0689 23.697V25.4667L57.0698 25.4676ZM94.0927 17.7652C91.7591 17.7652 90.2181 19.0507 89.5578 20.9812V18.1401H86.3177V37.3125H89.5303V29.1428H89.5569C90.2723 31.2341 91.7608 32.3846 94.0927 32.3846C97.7896 32.3846 100.436 29.3321 100.436 25.0198C100.434 20.7378 97.7896 17.7652 94.0927 17.7652ZM93.2956 29.8145C90.7344 29.8145 89.3143 27.9533 89.3143 25.0616C89.3143 22.1698 90.9033 20.3087 93.2956 20.3087C95.6861 20.3087 97.2768 22.2605 97.2768 25.0616C97.2768 27.8644 95.6879 29.8145 93.2956 29.8145ZM132.256 31.92V32.007L119.718 32.0115V31.9208C121.527 30.8974 122.775 29.8553 123.897 28.7671H129.045L132.256 31.92ZM129.149 15.5611L125.971 12.4375H125.88C125.88 12.4375 125.933 18.2583 120.597 23.5513C115.376 28.7324 109.237 28.7448 109.237 28.7448V28.8355L112.474 32.0132C112.474 32.0132 118.524 32.0728 123.869 26.8197C129.194 21.5853 129.149 15.5611 129.149 15.5611Z" fill="#F7F8F8"/>
</g>
<g clip-path="url(#clip1_54_8)">
<path d="M277.644 23.6666H270.458L276.681 20.1477L275.448 18.0528L269.223 21.5717L272.815 15.4774L270.677 14.2692L267.084 20.3618V13.3257H264.614V20.3618L261.022 14.2692L258.883 15.4774L262.475 21.57L256.252 18.0528L255.017 20.1477L261.24 23.6657H254.055V26.0848H261.24L255.018 29.6028L256.251 31.6968L262.476 28.1787L258.883 34.2731L261.021 35.4813L264.615 29.3878V36.4239H267.085V29.2368L270.744 35.4431L272.749 34.3095L269.089 28.1023L275.446 31.6968L276.681 29.6019L270.459 26.0839H277.644L277.644 23.6666ZM265.849 28.1618C265.408 28.1618 264.972 28.0774 264.565 27.9131C264.159 27.7485 263.789 27.5062 263.475 27.1997C263.164 26.8958 262.917 26.5331 262.747 26.1328C262.578 25.7346 262.491 25.3067 262.491 24.8743C262.491 24.442 262.578 24.0141 262.747 23.6159C262.916 23.2162 263.164 22.8546 263.475 22.5499C263.787 22.2434 264.157 22.0017 264.564 21.8365C264.971 21.6712 265.408 21.586 265.849 21.586C266.74 21.586 267.593 21.9324 268.223 22.5481C268.534 22.8508 268.781 23.2126 268.95 23.6122C269.119 24.0117 269.206 24.441 269.207 24.8748C269.207 25.7463 268.853 26.5832 268.224 27.1997C267.589 27.819 266.736 28.165 265.849 28.1636V28.1618ZM284.011 33.3234V16.4262H287.177V33.3234H284.011ZM314.379 21.8409H317.402V23.2419C318.045 22.1217 319.545 21.514 320.83 21.514C322.426 21.514 323.711 22.1918 324.307 23.4276C325.235 22.0257 326.473 21.514 328.021 21.514C330.187 21.514 332.258 22.7977 332.258 25.8778V33.3225H329.187V26.5085C329.187 25.271 328.568 24.3373 327.115 24.3373C325.758 24.3373 324.948 25.3652 324.948 26.6027V33.3243H321.807V26.5085C321.807 25.271 321.164 24.3373 319.735 24.3373C318.354 24.3373 317.544 25.3421 317.544 26.6027V33.3243H314.379V21.8409ZM294.333 33.6566C290.766 33.6566 288.183 31.0633 288.183 27.5817C288.183 24.1552 290.758 21.5025 294.333 21.5025C297.925 21.5025 300.482 24.1801 300.482 27.5817C300.482 31.0385 297.898 33.6566 294.333 33.6566ZM294.333 24.3124C293.448 24.3142 292.6 24.6589 291.974 25.2719C291.666 25.5727 291.421 25.932 291.253 26.3288C291.085 26.7256 290.998 27.1518 290.997 27.5826C290.997 28.4497 291.349 29.2803 291.974 29.8933C292.605 30.5086 293.451 30.8531 294.332 30.8531C295.214 30.8531 296.06 30.5086 296.69 29.8933C296.999 29.5926 297.244 29.2334 297.412 28.8368C297.58 28.4402 297.667 28.0141 297.668 27.5835C297.668 26.7164 297.316 25.8849 296.69 25.2719C296.06 24.6568 295.214 24.3125 294.333 24.3124ZM307.245 33.6557C303.678 33.6557 301.096 31.0633 301.096 27.5817C301.096 24.1552 303.67 21.5025 307.245 21.5025C310.837 21.5025 313.396 24.1801 313.396 27.5817C313.396 31.0385 310.81 33.6557 307.245 33.6557ZM307.245 24.2742C306.354 24.2741 305.498 24.6222 304.86 25.2444C304.548 25.5485 304.3 25.9118 304.13 26.313C303.96 26.7142 303.872 27.1452 303.871 27.5808C303.872 28.0166 303.96 28.4478 304.13 28.8491C304.3 29.2505 304.548 29.6139 304.86 29.9182C305.498 30.5405 306.354 30.8888 307.245 30.8888C308.137 30.8888 308.993 30.5405 309.63 29.9182C309.942 29.614 310.19 29.2507 310.36 28.8495C310.53 28.4483 310.618 28.0173 310.62 27.5817C310.618 27.1459 310.53 26.7148 310.361 26.3134C310.191 25.9121 309.942 25.5486 309.63 25.2444C308.993 24.6219 308.137 24.2743 307.245 24.2742Z" fill="#F7F8F8"/>
</g>
<g clip-path="url(#clip2_54_8)">
<path d="M500.725 19.0971C496.792 19.0971 493.957 21.6971 493.957 25.5976C493.957 29.4971 497.148 32.0971 501.08 32.0971C503.456 32.0971 505.551 31.1442 506.847 29.5371L504.122 27.9407C503.402 28.7389 502.309 29.2047 501.08 29.2047C499.375 29.2047 497.925 28.3016 497.387 26.858H507.367C507.446 26.4527 507.492 26.034 507.492 25.5931C507.492 21.6971 504.656 19.0971 500.725 19.0971ZM497.355 24.3327C497.799 22.8927 499.018 21.986 500.721 21.986C502.427 21.986 503.646 22.8927 504.087 24.3327H497.355ZM539.078 19.0971C535.145 19.0971 532.311 21.6971 532.311 25.5976C532.311 29.4971 535.502 32.0971 539.434 32.0971C541.809 32.0971 543.903 31.1442 545.2 29.5371L542.476 27.9407C541.756 28.7389 540.663 29.2047 539.434 29.2047C537.727 29.2047 536.278 28.3016 535.74 26.858H545.72C545.799 26.4527 545.845 26.034 545.845 25.5931C545.845 21.6971 543.01 19.0971 539.078 19.0971ZM535.711 24.3327C536.157 22.8927 537.375 21.986 539.078 21.986C540.783 21.986 542.002 22.8927 542.444 24.3327H535.711ZM521.81 25.5967C521.81 27.7638 523.207 29.2082 525.372 29.2082C526.839 29.2082 527.94 28.5327 528.506 27.4313L531.242 29.0313C530.109 30.9451 527.986 32.0971 525.372 32.0971C521.436 32.0971 518.605 29.4971 518.605 25.5967C518.605 21.6971 521.439 19.0971 525.372 19.0971C527.986 19.0971 530.105 20.2491 531.242 22.1638L528.506 23.7629C527.94 22.6607 526.839 21.986 525.372 21.986C523.21 21.986 521.81 23.4296 521.81 25.5967ZM551.188 15.1256V31.7362H547.982V15.1238H551.188V15.1256ZM463.65 13.3193L476.811 36.4304H450.489L463.65 13.3193ZM496.553 15.1247L486.684 32.458L476.815 15.1247H480.515L486.684 25.9584L492.853 15.1247H496.553ZM517.536 19.458V22.9576C517.167 22.8437 516.783 22.7838 516.396 22.7798C514.327 22.7798 512.834 24.2251 512.834 26.3913V31.7362H509.629V19.458H512.834V22.7807C512.834 20.946 514.94 19.458 517.536 19.458Z" fill="#F7F8F8"/>
</g>
<g clip-path="url(#clip3_54_8)">
<path fill-rule="evenodd" clip-rule="evenodd" d="M702.019 24.7309C702.302 23.4063 703.215 22.732 704.415 22.732C705.604 22.732 706.474 23.4365 706.752 24.7309H702.019ZM704.48 20.4382C701.425 20.4382 699.524 22.796 699.524 25.6806C699.524 28.6682 701.555 30.8839 704.573 30.8839C706.655 30.8839 707.917 29.9537 708.699 28.7828L706.757 27.5844C706.268 28.2294 705.486 28.5705 704.649 28.5705C703.278 28.5705 702.36 27.9504 702.047 26.7102H707.176L707.174 26.7155L709.044 26.7262C709.115 26.3993 709.157 26.0626 709.157 25.6815C709.157 23.1691 707.555 20.439 704.481 20.439L704.48 20.4382ZM692.702 28.527C691.014 28.527 690 27.3179 690 25.8263C690 24.3338 691.034 23.1247 692.702 23.1247C694.369 23.1247 695.403 24.3338 695.403 25.8254C695.403 27.3179 694.388 28.527 692.702 28.527ZM695.403 22.143C694.68 21.2901 693.653 20.7678 692.38 20.7678C689.532 20.7678 687.483 23.0332 687.483 25.8263C687.483 28.6194 689.513 30.8839 692.38 30.8839C693.653 30.8839 694.68 30.3615 695.402 29.5086V30.6351H697.919V17.224H695.402L695.403 22.143ZM716.69 25.4522C717.393 25.932 717.839 26.6542 717.839 27.6057C717.839 29.53 716.515 30.8643 714.038 30.8643C711.707 30.8643 710.456 29.6952 709.959 28.5145L712.099 27.2921C712.099 27.2921 712.387 28.5678 713.999 28.5678C714.997 28.5678 715.305 28.1361 715.305 27.755C715.305 27.5773 715.247 27.253 714.537 26.9776C713.11 26.4259 710.351 26.1781 710.351 23.6604C710.351 21.5993 712.002 20.5003 714.038 20.5003C715.941 20.5003 717.164 21.6597 717.628 22.5614L715.535 23.759C715.535 23.759 715.133 22.7578 714.057 22.7578C712.982 22.7578 712.886 23.3663 712.886 23.5431C712.886 24.0584 713.423 24.2698 714.575 24.6029C715.258 24.8002 715.959 24.9796 716.692 25.4496L716.69 25.4522ZM758.922 23.2082H756.752V27.2912C756.752 28.567 758.019 28.2924 758.922 28.2924V30.5889C758.922 30.5889 758.446 30.6671 757.616 30.6671C755.773 30.6671 754.275 30.1172 754.275 27.2912V23.2082H752.604V20.774H754.275V18.0262H756.752V20.774H758.922V23.2082ZM723.997 28.3902C725.025 28.3902 725.815 27.8891 726.215 27.0665L728.362 28.3253C727.521 29.8338 725.953 30.883 723.997 30.883C721.031 30.883 718.957 28.5634 718.957 25.701C718.957 22.8395 721.05 20.519 723.997 20.519C725.925 20.519 727.486 21.5513 728.336 23.0394L726.194 24.3275C725.787 23.5156 725.003 23.0127 723.997 23.0127C722.499 23.0127 721.434 24.2156 721.434 25.701C721.434 27.1864 722.489 28.3902 723.997 28.3902ZM746.667 28.8255C745.041 28.8255 744.062 27.5844 744.062 26.0528C744.062 24.5212 745.059 23.281 746.667 23.281C748.275 23.281 749.272 24.5212 749.272 26.0528C749.272 27.5844 748.294 28.8255 746.667 28.8255ZM746.977 20.861C749.723 20.861 751.698 23.186 751.698 26.0528C751.698 28.9196 749.742 31.2437 746.977 31.2437C745.749 31.2437 744.76 30.708 744.062 29.8329V34.9012H741.636V21.1364H744.062V22.2727C744.76 21.3976 745.749 20.861 746.977 20.861ZM736.973 30.9887V21.1569H739.399V30.9887H736.973ZM732.452 22.8359C732.92 21.6446 733.874 20.9632 735.31 20.9596V23.7918C733.626 23.6248 732.409 24.5008 732.454 26.569L732.452 26.5645V30.9887H730.026V21.1569H732.452V22.8359ZM736.973 19.8447V17.224H739.479V19.8447H736.973ZM659.391 35.1508C659.391 36.4621 660.228 37.3123 661.518 37.3123H667.733C671.441 37.3123 674.475 36.0375 676.537 33.8058H659.391V35.1508ZM667.733 13.3257H661.518C660.228 13.3257 659.391 14.1759 659.391 15.4871V16.8322H676.537C674.475 14.6005 671.441 13.3257 667.733 13.3257ZM673.158 28.7366C673.158 29.7974 673.838 30.4859 674.886 30.4859H678.61C679.033 29.4207 679.316 28.2507 679.448 26.9883H674.886C673.838 26.9883 673.158 27.6759 673.158 28.7366ZM667.995 21.9102C667.995 22.971 668.675 23.6586 669.724 23.6586H679.448C679.33 22.4599 679.048 21.2831 678.611 20.161H669.724C668.675 20.161 667.995 20.8495 667.995 21.9102ZM669.722 28.7366C669.722 27.6759 669.042 26.9883 667.994 26.9883H659.391V30.4859H667.994C669.042 30.4859 669.722 29.7974 669.722 28.7366ZM664.56 21.9102C664.56 20.8495 663.88 20.161 662.832 20.161H659.391V23.6586H662.832C663.88 23.6586 664.56 22.971 664.56 21.9102Z" fill="#F7F8F8"/>
</g>
<g clip-path="url(#clip4_54_8)">
<path d="M906.071 22.0464C905.972 22.1068 905.853 22.1278 905.738 22.1053C905.624 22.0828 905.521 22.0184 905.452 21.9246C905.11 21.4348 904.652 21.0378 904.119 20.7695C903.585 20.5012 902.994 20.37 902.397 20.3878C900.069 20.3878 898.64 22.2269 898.64 24.8518C898.64 27.4775 900.095 29.3513 902.423 29.3513C903.027 29.3655 903.626 29.2255 904.161 28.9445C904.697 28.6635 905.152 28.2507 905.484 27.7451C905.55 27.6499 905.649 27.5829 905.763 27.5576C905.876 27.5322 905.994 27.5503 906.095 27.6082L907.2 28.2482C907.261 28.2786 907.314 28.3217 907.356 28.3745C907.398 28.4273 907.428 28.4886 907.445 28.5542C907.461 28.6197 907.463 28.6881 907.45 28.7545C907.438 28.8209 907.411 28.8838 907.372 28.9389C906.831 29.7483 906.094 30.4072 905.228 30.8537C904.363 31.3002 903.399 31.5197 902.426 31.4918C898.704 31.4918 896.182 28.7966 896.182 24.8669C896.182 20.9371 898.704 18.2766 902.37 18.2766C903.327 18.2503 904.276 18.4582 905.134 18.8824C905.992 19.3066 906.734 19.9342 907.294 20.7104C907.332 20.7627 907.359 20.8223 907.374 20.8856C907.388 20.9489 907.39 21.0145 907.378 21.0783C907.366 21.1421 907.341 21.2027 907.304 21.2564C907.268 21.3101 907.22 21.3557 907.166 21.3904L906.071 22.0464ZM914.207 30.7789V30.2455C913.625 30.994 912.814 31.4589 911.507 31.4589C909.575 31.4589 908.233 30.4046 908.233 28.5549C908.233 26.2518 910.291 25.8562 911.559 25.6793C912.921 25.482 914.082 25.3886 914.082 24.4998C914.082 23.7131 913.171 23.5006 912.4 23.5006C911.515 23.5153 910.646 23.735 909.86 24.1424C909.805 24.172 909.745 24.1902 909.684 24.1961C909.622 24.202 909.56 24.1955 909.501 24.1768C909.441 24.1582 909.387 24.1278 909.339 24.0875C909.292 24.0473 909.254 23.9979 909.226 23.9424L908.827 23.1113C908.774 23.0037 908.764 22.8799 908.8 22.7654C908.836 22.6509 908.914 22.5545 909.019 22.4962C910.119 21.9113 911.346 21.604 912.592 21.6011C914.809 21.6011 916.375 22.5104 916.375 24.7095V30.7789C916.375 30.8399 916.363 30.9005 916.339 30.9569C916.316 31.0134 916.282 31.0647 916.239 31.1079C916.195 31.151 916.144 31.1853 916.088 31.2086C916.031 31.2319 915.971 31.2439 915.91 31.2438H914.693C914.63 31.2464 914.567 31.2363 914.509 31.2142C914.45 31.192 914.396 31.1582 914.351 31.1148C914.306 31.0713 914.27 31.0192 914.245 30.9615C914.22 30.9038 914.207 30.8416 914.207 30.7789ZM914.082 26.5824C913.655 26.9051 912.866 27.0126 912.025 27.1629C911.183 27.314 910.486 27.538 910.486 28.45C910.486 29.2891 911.094 29.6811 911.973 29.6811C913.063 29.6811 914.082 29.074 914.082 27.6633V26.5824ZM918.374 28.8393C918.452 28.7479 918.563 28.6906 918.683 28.6793C918.803 28.668 918.923 28.7037 919.017 28.7789C919.796 29.3652 920.749 29.6721 921.723 29.65C922.727 29.65 923.469 29.3282 923.469 28.5442C923.469 27.8295 922.788 27.6873 921.141 27.3993C919.395 27.1086 917.725 26.5282 917.725 24.5415C917.725 22.4704 919.515 21.5966 921.554 21.5966C922.833 21.5778 924.081 21.9867 925.101 22.7584C925.151 22.7971 925.192 22.8456 925.223 22.9009C925.253 22.9562 925.272 23.0172 925.278 23.0801C925.284 23.143 925.277 23.2065 925.258 23.2666C925.238 23.3267 925.207 23.3821 925.165 23.4295L924.583 24.1113C924.506 24.203 924.397 24.2617 924.278 24.2752C924.159 24.2888 924.039 24.2562 923.943 24.1842C923.226 23.6603 922.358 23.3831 921.47 23.394C920.612 23.394 919.861 23.6438 919.861 24.3211C919.861 25.0731 920.914 25.2153 921.97 25.3958C924.225 25.7869 925.657 26.4295 925.657 28.2998C925.657 30.2633 924.083 31.4775 921.583 31.4775C920.218 31.5192 918.88 31.0835 917.8 30.2455C917.752 30.2059 917.712 30.1571 917.683 30.102C917.654 30.0468 917.636 29.9865 917.631 29.9244C917.625 29.8623 917.632 29.7997 917.651 29.7402C917.669 29.6808 917.7 29.6256 917.74 29.578L918.374 28.8402V28.8393ZM927.039 30.7806V18.9593C927.039 18.8982 927.051 18.8377 927.075 18.7812C927.098 18.7247 927.133 18.6735 927.176 18.6303C927.219 18.5871 927.271 18.5529 927.327 18.5296C927.384 18.5062 927.444 18.4943 927.505 18.4944H928.847C928.908 18.4943 928.968 18.5062 929.025 18.5296C929.081 18.5529 929.133 18.5871 929.176 18.6303C929.219 18.6735 929.253 18.7247 929.277 18.7812C929.3 18.8377 929.312 18.8982 929.312 18.9593V22.9966C929.647 22.5519 930.083 22.1935 930.584 21.951C931.085 21.7086 931.637 21.5893 932.193 21.6029C934.177 21.6029 935.341 23.0135 935.341 25.0295V30.7806C935.341 30.9038 935.291 31.0218 935.204 31.1088C935.117 31.1958 934.999 31.2446 934.876 31.2446H933.535C933.411 31.2446 933.293 31.1958 933.206 31.1089C933.119 31.0219 933.069 30.9039 933.069 30.7806V25.5522C933.069 24.5504 932.745 23.6411 931.459 23.6411C930.24 23.6411 929.312 24.498 929.312 25.9273V30.7833C929.312 30.9067 929.263 31.0249 929.176 31.1121C929.088 31.1992 928.97 31.2482 928.847 31.2482H927.505C927.444 31.2487 927.383 31.2369 927.326 31.2135C927.269 31.1902 927.218 31.1557 927.174 31.1122C927.131 31.0687 927.097 31.0169 927.073 30.96C927.05 30.9031 927.039 30.8421 927.039 30.7806ZM950.102 30.9326L949.136 28.0864H944.253L943.285 30.9326C943.253 31.0241 943.194 31.1035 943.115 31.1597C943.036 31.2159 942.942 31.2462 942.845 31.2464H941.271C941.158 31.2457 941.049 31.2044 940.964 31.1299C940.879 31.0554 940.824 30.9529 940.809 30.8411C940.8 30.7669 940.809 30.6916 940.835 30.6215L945.231 18.7984C945.266 18.712 945.327 18.6383 945.405 18.5865C945.483 18.5347 945.574 18.5073 945.668 18.5078H947.818C947.914 18.5081 948.007 18.5374 948.085 18.5919C948.163 18.6463 948.224 18.7233 948.257 18.8126L952.637 30.6331C952.677 30.7393 952.676 30.8566 952.635 30.9623C952.593 31.068 952.514 31.1546 952.413 31.2055C952.346 31.2402 952.272 31.2581 952.197 31.258H950.535C950.438 31.2557 950.344 31.2231 950.266 31.1648C950.189 31.1064 950.131 31.0253 950.102 30.9326ZM946.72 20.5673L944.84 26.1024H948.527L946.72 20.5673ZM956.008 22.2811V23.0135C956.34 22.5569 956.779 22.1892 957.286 21.943C957.794 21.6968 958.355 21.5796 958.919 21.602C961.494 21.602 963.158 23.7282 963.158 26.5131C963.158 29.2989 961.494 31.4509 958.919 31.4509C958.353 31.4723 957.791 31.3528 957.283 31.1034C956.775 30.8539 956.337 30.4821 956.008 30.0215V33.8758C956.008 33.9368 955.996 33.9973 955.973 34.0537C955.95 34.1101 955.915 34.1613 955.872 34.2045C955.829 34.2477 955.778 34.2819 955.721 34.3053C955.665 34.3286 955.604 34.3406 955.543 34.3406H954.202C954.141 34.3408 954.08 34.3288 954.024 34.3055C953.967 34.2822 953.916 34.248 953.873 34.2048C953.83 34.1616 953.795 34.1103 953.772 34.0539C953.748 33.9974 953.736 33.9369 953.736 33.8758V22.258C953.736 22.1969 953.748 22.1363 953.772 22.0799C953.795 22.0234 953.83 21.9721 953.873 21.9289C953.916 21.8858 953.967 21.8515 954.024 21.8282C954.08 21.8049 954.141 21.793 954.202 21.7931H955.543C955.639 21.7926 955.731 21.8214 955.81 21.8757C955.888 21.9299 955.947 22.0069 955.98 22.0962C956.002 22.1555 956.012 22.2179 956.008 22.2811ZM958.441 29.4784C960.015 29.4784 960.769 28.1362 960.769 26.5131C960.769 24.89 960.001 23.5824 958.441 23.5824C956.882 23.5824 956.008 24.8864 956.008 26.5131C956.008 28.1398 956.839 29.4784 958.441 29.4784ZM966.833 22.2811V23.0135C967.164 22.5565 967.603 22.1884 968.111 21.9421C968.619 21.6958 969.18 21.579 969.743 21.602C972.321 21.602 973.985 23.7273 973.985 26.5131C973.985 29.2989 972.321 31.4509 969.743 31.4509C969.178 31.4718 968.616 31.3522 968.108 31.1027C967.6 30.8533 967.162 30.4818 966.833 30.0215V33.8758C966.833 33.9368 966.821 33.9973 966.798 34.0538C966.775 34.1103 966.74 34.1615 966.697 34.2047C966.654 34.2479 966.603 34.2822 966.546 34.3055C966.49 34.3288 966.429 34.3408 966.368 34.3406H965.027C964.966 34.3408 964.905 34.3288 964.849 34.3055C964.792 34.2822 964.741 34.248 964.698 34.2048C964.654 34.1616 964.62 34.1103 964.597 34.0539C964.573 33.9974 964.561 33.9369 964.561 33.8758V22.258C964.561 22.1969 964.573 22.1363 964.597 22.0799C964.62 22.0234 964.654 21.9721 964.698 21.9289C964.741 21.8858 964.792 21.8515 964.849 21.8282C964.905 21.8049 964.966 21.793 965.027 21.7931H966.368C966.432 21.7926 966.494 21.8051 966.552 21.8298C966.611 21.8546 966.663 21.891 966.707 21.9368C966.75 21.9826 966.784 22.0369 966.806 22.0963C966.828 22.1556 966.837 22.218 966.833 22.2811ZM969.269 29.4784C970.843 29.4784 971.597 28.1362 971.597 26.5131C971.597 24.89 970.828 23.5824 969.269 23.5824C967.71 23.5824 966.833 24.8864 966.833 26.5131C966.833 28.1398 967.674 29.4784 969.269 29.4784Z" fill="#F7F8F8"/>
<path fill-rule="evenodd" clip-rule="evenodd" d="M866.904 12.4307C863.73 12.4307 861.156 14.9996 861.156 18.1676V31.5827C861.156 34.7516 863.73 37.3196 866.904 37.3196H880.21C883.384 37.3196 885.957 34.7507 885.957 31.5827V18.1676C885.957 14.9987 883.385 12.4307 880.21 12.4307H866.904ZM877.586 21.6876C876.639 20.8877 875.44 20.4483 874.2 20.4467C873.178 20.4467 872.156 20.7844 872.156 21.7222C872.156 22.5782 873.066 22.9133 874.186 23.3249L874.518 23.4476C876.734 24.1942 878.559 25.1089 878.559 27.2769C878.559 29.6316 876.728 31.2396 873.732 31.4236L873.461 32.6858C873.436 32.8001 873.373 32.9024 873.281 32.9756C873.19 33.0487 873.076 33.0882 872.959 33.0876H871.076C871 33.0854 870.926 33.0667 870.858 33.0328C870.79 32.9988 870.73 32.9504 870.683 32.891C870.636 32.8315 870.602 32.7625 870.584 32.6886C870.567 32.6148 870.565 32.538 870.58 32.4636L870.872 31.132C869.741 30.8445 868.702 30.2761 867.85 29.4796C867.801 29.4325 867.762 29.3762 867.736 29.3139C867.709 29.2516 867.696 29.1846 867.696 29.1169C867.696 29.0492 867.709 28.9822 867.736 28.9199C867.762 28.8576 867.801 28.8012 867.85 28.7542L868.895 27.7347C868.99 27.6412 869.118 27.5888 869.251 27.5888C869.385 27.5888 869.513 27.6412 869.608 27.7347C870.566 28.6466 871.844 29.1459 873.166 29.1249C874.53 29.1249 875.455 28.5471 875.455 27.6324C875.455 26.8058 874.697 26.5284 873.257 26.0022C873.104 25.9462 872.943 25.8884 872.775 25.8253C870.924 25.1676 869.172 24.2253 869.172 22.0378C869.172 19.5044 871.292 18.2689 873.791 18.1471L874.054 16.8618C874.079 16.7484 874.143 16.647 874.234 16.5745C874.325 16.5019 874.437 16.4625 874.554 16.4627H876.43C876.505 16.4625 876.58 16.4791 876.648 16.5113C876.716 16.5434 876.776 16.5903 876.824 16.6486C876.872 16.7069 876.906 16.7751 876.925 16.8482C876.943 16.9214 876.944 16.9977 876.93 17.0716L876.638 18.508C877.593 18.8201 878.478 19.3152 879.244 19.9658C879.296 20.0105 879.339 20.0656 879.369 20.1276C879.399 20.1895 879.415 20.257 879.418 20.3257C879.42 20.3944 879.409 20.463 879.383 20.5269C879.358 20.5909 879.32 20.6489 879.271 20.6973L878.296 21.6733C878.202 21.7657 878.076 21.8185 877.944 21.8212C877.812 21.8238 877.684 21.776 877.586 21.6876Z" fill="#F7F8F8"/>
</g>
<g clip-path="url(#clip5_54_8)">
<path fill-rule="evenodd" clip-rule="evenodd" d="M1075.65 29.5896V32.6484L1068.28 25.3191L1069.82 23.7884L1075.65 29.5896ZM1078.72 32.6484H1075.65L1083.02 39.9776L1084.56 38.4469L1078.72 32.6484ZM1096.21 26.8498L1097.75 25.3191L1083.02 10.6606L1081.48 12.1949L1087.31 17.9934H1083.79L1079.72 13.9539L1078.18 15.4846L1080.71 18.0014H1078.94V29.3791H1090.38V27.6201L1092.91 30.1378L1094.45 28.6071L1090.38 24.5596V21.0548L1096.21 26.8498ZM1076.42 17.2312L1074.88 18.7628L1076.53 20.4045L1078.06 18.8738L1076.42 17.2321L1076.42 17.2312ZM1089.5 30.2479L1087.97 31.7786L1089.62 33.4204L1091.15 31.8897L1089.5 30.2479ZM1073.12 20.5129L1071.58 22.0436L1075.65 26.0911V23.0306L1073.12 20.5129ZM1085.32 32.6546H1082.25L1086.32 36.7021L1087.86 35.1714L1085.32 32.6546Z" fill="#F7F8F8"/>
<path d="M1180.02 32.6308C1179.03 32.6308 1178.25 32.3634 1177.7 31.8259C1177.15 31.2884 1176.87 30.5413 1176.87 29.596V23.7326H1175.09V21.5374H1176.88L1177.2 18.6057H1179.29V21.5374H1182.03V23.7362H1179.29V29.2771C1179.29 29.5805 1179.4 29.8741 1179.61 30.0944C1179.72 30.2073 1179.85 30.2958 1179.99 30.3541C1180.14 30.4123 1180.29 30.4389 1180.45 30.432H1182.03V32.6308H1180.02ZM1169.32 32.8378C1167.99 32.8378 1166.93 32.5242 1166.12 31.8961C1165.32 31.2751 1164.77 30.387 1164.58 29.3944H1167.21C1167.32 29.7755 1167.58 30.0989 1167.92 30.3005C1168.34 30.5436 1168.83 30.6625 1169.32 30.6434C1170.72 30.6434 1171.42 30.2526 1171.42 29.4974C1171.42 29.1216 1171.2 28.8338 1170.76 28.6357C1170.25 28.417 1169.71 28.2578 1169.16 28.1613C1168.53 28.0383 1167.9 27.8842 1167.27 27.6993C1166.64 27.5139 1166.08 27.1424 1165.66 26.6332C1165.22 26.1118 1165 25.4259 1165 24.5766C1164.99 24.1297 1165.09 23.6874 1165.28 23.2843C1165.48 22.8811 1165.76 22.528 1166.11 22.2526C1166.86 21.6351 1167.89 21.3269 1169.21 21.3286C1170.53 21.3286 1171.57 21.6218 1172.35 22.2082C1173.12 22.7873 1173.65 23.6305 1173.84 24.5766H1171.21C1170.93 23.8828 1170.26 23.5283 1169.21 23.5274C1168.09 23.5274 1167.53 23.8766 1167.53 24.5757C1167.53 24.7364 1167.57 24.8935 1167.66 25.031C1167.74 25.1684 1167.86 25.2811 1168 25.3575C1168.36 25.5746 1168.76 25.7172 1169.18 25.7768C1169.7 25.8657 1170.22 25.9838 1170.73 26.1322C1171.25 26.2823 1171.77 26.4662 1172.27 26.683C1172.76 26.9032 1173.18 27.2621 1173.47 27.7153C1173.8 28.2466 1173.96 28.8654 1173.94 29.4921C1173.95 29.9585 1173.85 30.4207 1173.65 30.8398C1173.44 31.2597 1173.14 31.6245 1172.76 31.9041C1171.98 32.5259 1170.83 32.8369 1169.32 32.8378ZM1161.47 22.4382C1160.66 21.7124 1159.52 21.35 1158.06 21.35C1156.9 21.35 1155.92 21.6609 1155.13 22.2854C1154.35 22.8928 1153.8 23.7449 1153.57 24.7036H1156.06C1156.19 24.3412 1156.43 24.0285 1156.75 23.8144C1157.14 23.5553 1157.6 23.4259 1158.06 23.4448C1158.75 23.4448 1159.29 23.6207 1159.68 23.9689C1159.88 24.1541 1160.04 24.3811 1160.14 24.6338C1160.24 24.8864 1160.29 25.1584 1160.27 25.4304V25.9598H1157.42C1156.11 25.9598 1155.08 26.2885 1154.33 26.9468C1153.98 27.2502 1153.69 27.6288 1153.5 28.0554C1153.31 28.4819 1153.21 28.9459 1153.22 29.4139C1153.21 29.8767 1153.29 30.337 1153.47 30.7639C1153.65 31.1907 1153.92 31.574 1154.26 31.8881C1154.95 32.5393 1155.87 32.8653 1157.01 32.8653C1157.72 32.8815 1158.42 32.7196 1159.05 32.3945C1159.55 32.1494 1159.98 31.7701 1160.28 31.2982H1160.38L1160.59 32.6663H1162.69V25.4348C1162.69 24.1653 1162.28 23.1667 1161.47 22.4382ZM1160.27 28.3638C1160.29 28.6932 1160.23 29.0216 1160.1 29.3256C1159.97 29.6296 1159.78 29.9018 1159.54 30.1228C1159.05 30.5546 1158.38 30.7714 1157.54 30.7714C1156.92 30.7714 1156.45 30.631 1156.12 30.3574C1155.97 30.2301 1155.84 30.0688 1155.76 29.8856C1155.67 29.7024 1155.63 29.5022 1155.63 29.3002C1155.63 28.323 1156.28 27.8379 1157.54 27.8379H1160.27V28.3638ZM1146.9 32.8618C1145.31 32.8618 1144.03 32.3518 1143.08 31.3337C1142.12 30.3139 1141.64 28.904 1141.64 27.1032C1141.64 25.3069 1142.12 23.8979 1143.07 22.878C1144.02 21.8581 1145.3 21.3482 1146.9 21.35C1148.21 21.35 1149.29 21.6947 1150.14 22.3858C1150.98 23.0513 1151.58 23.9729 1151.85 25.0101H1149.44C1149.2 24.5508 1148.83 24.1691 1148.39 23.91C1147.94 23.6509 1147.42 23.5252 1146.91 23.5479C1146.51 23.5341 1146.12 23.6108 1145.77 23.7719C1145.41 23.933 1145.09 24.1743 1144.84 24.4771C1144.32 25.099 1144.05 25.9741 1144.05 27.1032C1144.05 28.2332 1144.32 29.1092 1144.84 29.7302C1145.09 30.0344 1145.41 30.2769 1145.76 30.4387C1146.12 30.6005 1146.51 30.6773 1146.91 30.663C1147.42 30.6848 1147.94 30.5586 1148.38 30.2992C1148.83 30.0399 1149.2 29.6582 1149.44 29.1989H1151.85C1151.58 30.2374 1150.98 31.1601 1150.14 31.8259C1149.29 32.5162 1148.21 32.8618 1146.9 32.8618ZM1132.67 36.8471L1134.35 32.6565L1129.83 21.5632H1132.46L1135.51 29.4139H1135.62L1138.67 21.5632H1141.3L1135.2 36.8471H1132.67ZM1127.56 22.4382C1126.75 21.7124 1125.61 21.35 1124.15 21.35C1122.99 21.35 1122.01 21.6609 1121.22 22.2854C1120.44 22.8923 1119.89 23.7446 1119.66 24.7036H1122.15C1122.27 24.3403 1122.52 24.0285 1122.84 23.8144C1123.23 23.5547 1123.69 23.4252 1124.15 23.4448C1124.84 23.4448 1125.38 23.6198 1125.77 23.9689C1125.97 24.1538 1126.13 24.3808 1126.23 24.6335C1126.33 24.8862 1126.38 25.1584 1126.36 25.4304V25.9598H1123.51C1122.2 25.9598 1121.17 26.2885 1120.42 26.9468C1120.07 27.2498 1119.78 27.6283 1119.59 28.0549C1119.4 28.4816 1119.3 28.9457 1119.31 29.4139C1119.29 29.8765 1119.38 30.3367 1119.56 30.7635C1119.74 31.1903 1120.01 31.5738 1120.35 31.8881C1121.04 32.5393 1121.95 32.8653 1123.1 32.8653C1123.8 32.8815 1124.5 32.7196 1125.13 32.3945C1125.64 32.1496 1126.06 31.7703 1126.37 31.2982H1126.47L1126.67 32.6663H1128.77V25.4348C1128.77 24.1653 1128.37 23.1667 1127.56 22.4382ZM1126.36 28.3638C1126.37 28.6933 1126.32 29.022 1126.19 29.3262C1126.06 29.6303 1125.87 29.9024 1125.62 30.1228C1125.13 30.5555 1124.47 30.7714 1123.62 30.7714C1123.01 30.7714 1122.53 30.6328 1122.21 30.3574C1122.05 30.2302 1121.93 30.0688 1121.84 29.8856C1121.76 29.7024 1121.71 29.5022 1121.72 29.3002C1121.73 28.3265 1122.36 27.8397 1123.62 27.8379H1126.36L1126.36 28.3638ZM1113.91 27.1041C1114.28 27.0046 1114.65 26.8624 1114.99 26.6821C1115.39 26.464 1115.76 26.2018 1116.11 25.9003C1116.52 25.5229 1116.84 25.0544 1117.03 24.5322C1117.27 23.9192 1117.39 23.2662 1117.38 22.6088C1117.38 21.214 1116.93 20.0947 1116.04 19.2551C1115.14 18.4147 1113.98 17.9954 1112.54 17.9981H1106.44V32.6565H1109.07V27.2178H1111.06L1114.85 32.6565H1117.8L1113.91 27.1041ZM1109.07 24.8991V20.3061H1112.33C1113.07 20.3061 1113.66 20.5078 1114.1 20.9102C1114.53 21.3127 1114.74 21.8768 1114.75 22.6026C1114.75 23.3284 1114.53 23.8943 1114.09 24.2994C1113.61 24.7162 1112.98 24.931 1112.35 24.8991H1109.07Z" fill="#F7F8F8"/>
</g>
<g clip-path="url(#clip6_54_8)">
<path d="M37.3475 114.356C37.4514 113.744 37.397 113.116 37.1894 112.532C36.9819 111.948 36.6282 111.426 36.162 111.017C35.4741 110.387 34.5749 110.037 33.6417 110.036C33.0916 110.036 32.562 109.912 32.075 109.66C31.4451 109.325 30.9294 108.809 30.5936 108.179C30.7837 107.7 30.8691 107.177 30.8691 106.614C30.8691 108.138 32.0963 109.368 33.6213 109.368H33.6844C34.4073 109.356 35.0966 109.061 35.6037 108.546C36.1108 108.031 36.3949 107.337 36.3948 106.614C36.3948 106.072 36.5006 105.55 36.6703 105.05C37.0025 104.18 37.601 103.437 38.3804 102.928C39.1599 102.418 40.0804 102.168 41.0106 102.212C40.285 100.993 39.2659 99.9738 38.046 99.2485V99.4572C38.0427 100.413 37.7311 101.343 37.1573 102.107C36.9873 101.963 36.8026 101.837 36.6063 101.732C37.1146 101.085 37.3688 100.292 37.3688 99.4786C37.3688 98.9988 37.2835 98.5191 37.0933 98.0589C36.8171 97.3883 36.3519 96.8123 35.7542 96.4011C35.1566 95.9899 34.4523 95.7613 33.727 95.7429H33.5155C32.5833 95.7429 31.6733 95.8681 30.7837 96.1187C28.9415 96.6121 27.2614 97.5813 25.9123 98.9291C24.5632 100.277 23.5925 101.956 23.0976 103.797C22.4631 104.57 22.0819 105.508 22.0605 106.51C22.1245 100.229 27.206 95.1388 33.5155 95.0757H33.8114C40.0784 95.1796 45.1393 100.229 45.2024 106.509V106.761C45.1827 107.758 44.816 108.717 44.1654 109.474C43.5654 110.193 42.748 110.698 41.8362 110.913C41.4967 110.996 41.1485 111.038 40.7991 111.038C39.8457 111.036 38.918 110.729 38.1517 110.162C37.8762 110.538 37.5385 110.851 37.1777 111.143C37.7973 111.963 38.105 112.976 38.046 114.002C39.2659 113.277 40.285 112.258 41.0106 111.038C41.2861 111.018 41.5616 110.975 41.8362 110.913C41.0527 112.407 39.8748 113.659 38.4303 114.53C36.9858 115.402 35.3299 115.862 33.6426 115.859C32.985 115.859 32.3718 115.546 31.9906 115.045C31.7168 114.677 31.5685 114.231 31.5676 113.772C31.5676 113.146 31.8635 112.562 32.3087 112.186C32.7317 112.291 33.1974 112.353 33.663 112.353C33.2819 112.355 32.9171 112.508 32.6476 112.777C32.3781 113.047 32.2257 113.411 32.2234 113.792C32.2234 114.586 32.8588 115.232 33.663 115.232H33.6844C34.0655 115.23 34.4303 115.078 34.6998 114.808C34.9693 114.539 35.1217 114.174 35.124 113.793C35.124 113 34.4886 112.353 33.6844 112.353C32.6317 112.351 31.5995 112.062 30.6984 111.518C30.5083 111.394 30.3181 111.268 30.1483 111.143C29.7811 110.854 29.4472 110.525 29.153 110.162C29.3228 110.037 29.4925 109.891 29.6614 109.724C30.1339 110.342 30.7428 110.843 31.4407 111.186C32.1385 111.53 32.9064 111.708 33.6844 111.706C34.2383 111.708 34.7691 111.928 35.1615 112.319C35.554 112.71 35.7765 113.24 35.7807 113.793C35.7807 114.252 35.6323 114.691 35.3569 115.065C36.0562 114.92 36.7334 114.711 37.3688 114.398L37.3475 114.356ZM42.069 104.965C41.9395 104.262 41.7115 103.581 41.3918 102.942C40.892 102.861 40.3812 102.883 39.89 103.005C39.3988 103.127 38.9372 103.347 38.533 103.651C38.073 104.001 37.7 104.453 37.4429 104.97C37.1858 105.488 37.0516 106.058 37.0507 106.635C37.0507 107.199 36.9236 107.719 36.6703 108.2C36.3426 108.829 35.8336 109.345 35.2093 109.682C35.7807 109.891 36.2891 110.224 36.7334 110.641C37.2608 110.241 37.7004 109.737 38.0246 109.159C38.469 108.387 38.7027 107.533 38.7027 106.635C38.7027 106.113 38.8929 105.655 39.211 105.279C39.5595 104.875 40.0481 104.618 40.5784 104.56C41.1088 104.502 41.6414 104.646 42.069 104.965ZM42.2174 106.573C42.1961 105.822 41.5607 105.217 40.7777 105.195C40.3987 105.193 40.0343 105.341 39.7644 105.607C39.4945 105.873 39.3412 106.235 39.3381 106.614V106.656C39.3585 107.429 39.9939 108.033 40.7777 108.033C41.1567 108.035 41.5212 107.887 41.7911 107.621C42.061 107.355 42.2143 106.993 42.2174 106.614V106.573ZM39.211 107.991C39.0626 108.554 38.8511 109.119 38.533 109.619C38.9348 109.928 39.3962 110.15 39.8881 110.272C40.3801 110.395 40.8921 110.414 41.3918 110.328C41.6673 110.287 41.9419 110.203 42.2174 110.098C42.8892 109.824 43.4669 109.361 43.8802 108.765C44.2936 108.169 44.5248 107.465 44.5457 106.74V106.552C44.5457 105.633 44.4195 104.716 44.1654 103.818C43.17 100.105 40.2268 97.1625 36.5006 96.14C37.2099 96.7434 37.7132 97.553 37.9402 98.456V98.4765C39.8784 99.4939 41.3936 101.164 42.2174 103.192C42.6617 104.256 42.8946 105.425 42.8946 106.657C42.8946 107.323 42.5773 107.929 42.069 108.305C41.704 108.584 41.258 108.738 40.7982 108.743C40.4963 108.733 40.1996 108.661 39.9266 108.532C39.6536 108.402 39.41 108.218 39.211 107.991ZM33.4729 118.174C27.206 118.069 22.145 112.999 22.0819 106.74V106.489C22.1018 105.492 22.4685 104.533 23.119 103.777C23.7248 103.064 24.5398 102.561 25.4482 102.337C25.7867 102.253 26.1467 102.211 26.4861 102.211C27.4388 102.211 28.3701 102.525 29.1326 103.088C29.4081 102.712 29.7458 102.4 30.1066 102.107C29.49 101.285 29.1758 100.275 29.217 99.2485C27.9972 99.9736 26.9781 100.992 26.2524 102.211C25.9769 102.233 25.7023 102.273 25.4268 102.337C26.2102 100.843 27.3882 99.5918 28.8327 98.72C30.2772 97.8482 31.9331 97.3888 33.6204 97.3917C34.278 97.3917 34.8912 97.7044 35.2724 98.2055C35.5479 98.5608 35.6963 98.9979 35.6963 99.4786C35.6962 99.781 35.6297 100.08 35.5017 100.354C35.3736 100.628 35.1871 100.87 34.9552 101.064C34.5108 100.96 34.0656 100.897 33.5999 100.897C33.981 100.895 34.3459 100.743 34.6154 100.473C34.8848 100.204 35.0373 99.8391 35.0396 99.4581C35.0396 98.6648 34.4042 98.0172 33.5999 98.0172H33.5786C33.1974 98.0195 32.8324 98.172 32.5629 98.4416C32.2934 98.7112 32.1411 99.0761 32.139 99.4572C32.139 100.251 32.7744 100.896 33.5786 100.896C34.637 100.896 35.6537 101.19 36.5646 101.732C36.7547 101.857 36.9449 101.982 37.1146 102.107C37.4746 102.4 37.8131 102.734 38.11 103.088C37.9402 103.212 37.7705 103.359 37.6016 103.526C37.1291 102.908 36.5202 102.408 35.8223 102.064C35.1245 101.72 34.3566 101.542 33.5786 101.544C33.0829 101.537 32.6045 101.36 32.2234 101.043C31.9929 100.848 31.8073 100.605 31.6794 100.331C31.5514 100.057 31.4842 99.7593 31.4822 99.4572C31.4822 98.9775 31.6511 98.5395 31.9061 98.1842C31.2076 98.3308 30.5083 98.56 29.8737 98.8522C29.7699 99.4636 29.8243 100.091 30.0318 100.676C30.2393 101.26 30.593 101.782 31.0592 102.191C31.7469 102.821 32.6457 103.171 33.5786 103.172C34.1296 103.172 34.6584 103.296 35.1453 103.547C35.7756 103.883 36.2916 104.399 36.6276 105.028C36.4305 105.526 36.3367 106.059 36.3522 106.594C36.3522 105.07 35.124 103.84 33.5999 103.84H33.5786C32.8557 103.851 32.1664 104.147 31.6593 104.662C31.1522 105.177 30.8681 105.871 30.8682 106.594C30.8682 107.136 30.7624 107.658 30.5927 108.158C30.2604 109.028 29.6618 109.77 28.8824 110.28C28.103 110.789 27.1826 111.04 26.2524 110.996C26.9781 112.215 27.9972 113.233 29.217 113.958C29.1684 112.941 29.4753 111.937 30.0853 111.121C30.2541 111.268 30.4452 111.393 30.6362 111.497C30.1359 112.141 29.8673 112.935 29.8737 113.751C29.8737 114.23 29.9582 114.71 30.1492 115.169C30.4255 115.84 30.8907 116.416 31.4883 116.827C32.086 117.238 32.7903 117.467 33.5155 117.485H33.7057C34.637 117.485 35.5479 117.36 36.4366 117.11C38.2791 116.616 39.9593 115.647 41.3086 114.299C42.6579 112.952 43.6287 111.273 44.1236 109.431C44.7581 108.658 45.1393 107.72 45.1598 106.719C45.0967 113 40.0144 118.09 33.7057 118.153H33.4515C33.5155 118.174 33.4729 118.174 33.4729 118.174ZM30.7837 117.13C30.0744 116.527 29.5712 115.717 29.3441 114.814V114.794C27.4059 113.776 25.8907 112.106 25.0669 110.078C24.6213 108.977 24.3914 107.801 24.3898 106.614C24.3898 105.947 24.707 105.341 25.2153 104.966C25.5785 104.683 26.0255 104.529 26.4861 104.527C27.1206 104.527 27.6929 104.82 28.0733 105.258C28.2217 104.674 28.4332 104.131 28.7514 103.631C28.3496 103.322 27.8882 103.099 27.3962 102.977C26.9043 102.854 26.3923 102.835 25.8925 102.92C25.0307 103.057 24.2439 103.491 23.6679 104.146C23.0919 104.802 22.7629 105.637 22.7377 106.509V106.719C22.7377 107.637 22.8648 108.554 23.1198 109.452C24.1356 113.186 27.0567 116.129 30.7837 117.13ZM25.8925 110.328C26.3923 110.409 26.9031 110.387 27.3943 110.265C27.8856 110.143 28.3471 109.923 28.7514 109.619C29.2112 109.269 29.5841 108.818 29.8412 108.3C30.0983 107.783 30.2326 107.213 30.2337 106.635C30.2337 106.072 30.3607 105.55 30.614 105.07C30.9418 104.441 31.4507 103.925 32.075 103.588H32.0545C31.4864 103.375 30.9675 103.049 30.5296 102.629C30.0022 103.029 29.5627 103.533 29.2383 104.111C28.7932 104.878 28.5593 105.749 28.5603 106.635C28.5603 107.157 28.3701 107.616 28.0529 107.991C27.8558 108.219 27.612 108.403 27.3381 108.529C27.0641 108.654 26.7663 108.72 26.4648 108.721C26.0043 108.72 25.5573 108.566 25.194 108.283C25.3628 108.993 25.5966 109.682 25.8925 110.328ZM25.0669 106.698C25.1096 107.449 25.7237 108.075 26.5066 108.075C26.8856 108.077 27.25 107.929 27.5199 107.663C27.7899 107.397 27.9432 107.035 27.9462 106.656V106.614C27.9342 106.242 27.7767 105.889 27.5075 105.632C27.2384 105.374 26.879 105.233 26.5066 105.237C25.7023 105.237 25.0669 105.884 25.0669 106.676V106.698ZM54.4971 100.584H57.6732L60.6378 108.554H60.6804L63.6015 100.584H66.7776V111.809H64.7665V102.796H64.7452L61.2936 111.809H59.8753L56.4664 102.796H56.445V111.809H54.5184L54.4971 100.584ZM72.3247 100.584H79.8624V102.337H74.3589V105.195H79.5887V106.865H74.3366V110.036H80.1388V111.809H72.3051L72.3247 100.584ZM88.8398 105.425C89.1366 105.425 89.4121 105.404 89.708 105.362C89.9835 105.321 90.2376 105.237 90.4918 105.133C90.7246 105.008 90.9148 104.84 91.0632 104.632C91.2116 104.423 91.2961 104.131 91.2961 103.797C91.2961 103.484 91.233 103.234 91.0845 103.046C90.9361 102.858 90.7664 102.691 90.5549 102.587C90.3274 102.458 90.0745 102.38 89.8137 102.358C89.5478 102.316 89.2788 102.295 89.0095 102.296H87.1673V105.446C87.1886 105.425 88.8398 105.425 88.8398 105.425ZM85.1562 100.584H89.1152C89.6449 100.584 90.1737 100.646 90.682 100.751C91.1552 100.853 91.6069 101.037 92.0168 101.294C92.398 101.545 92.7366 101.899 92.9481 102.296C93.1818 102.713 93.308 103.214 93.308 103.798C93.308 104.612 93.0752 105.28 92.6095 105.781C92.1438 106.302 91.5084 106.636 90.7042 106.824L93.7319 111.79H91.2969L88.6718 107.033H87.1895V111.79H85.1562V100.584ZM106.519 103.213C106.225 102.813 105.82 102.508 105.355 102.337C104.905 102.153 104.423 102.06 103.937 102.066C103.386 102.066 102.835 102.169 102.327 102.378C101.858 102.587 101.434 102.885 101.078 103.255C100.721 103.624 100.446 104.065 100.273 104.549C100.083 105.07 99.9766 105.613 99.9979 106.155C99.9979 106.76 100.083 107.324 100.273 107.825C100.464 108.325 100.718 108.763 101.057 109.14C101.396 109.493 101.797 109.786 102.264 109.994C102.73 110.203 103.258 110.287 103.851 110.287C104.465 110.287 104.995 110.161 105.482 109.931C105.926 109.702 106.329 109.389 106.626 108.993L108.255 110.12C107.765 110.74 107.133 111.233 106.413 111.559C105.693 111.893 104.825 112.081 103.851 112.081C102.963 112.081 102.137 111.935 101.396 111.642C100.68 111.371 100.025 110.96 99.4692 110.432C98.9234 109.903 98.4974 109.262 98.2197 108.554C97.9229 107.824 97.7754 107.032 97.7754 106.156C97.7754 105.258 97.9229 104.444 98.241 103.714C98.5345 103.017 98.9749 102.39 99.5323 101.878C100.095 101.36 100.758 100.962 101.48 100.709C102.625 100.294 103.859 100.186 105.059 100.396C105.461 100.458 105.842 100.563 106.202 100.709C106.562 100.856 106.9 101.023 107.24 101.23C107.557 101.439 107.832 101.69 108.065 101.982C108.065 102.024 106.519 103.213 106.519 103.213ZM121.594 107.678C121.6 108.309 121.477 108.933 121.235 109.515C121.019 110.042 120.686 110.513 120.261 110.892C119.838 111.268 119.351 111.58 118.821 111.768C118.237 111.976 117.62 112.082 117 112.081C116.38 112.081 115.764 111.975 115.179 111.768C114.641 111.571 114.145 111.273 113.718 110.892C113.304 110.503 112.973 110.035 112.744 109.515C112.511 108.973 112.406 108.367 112.406 107.678V100.584H114.438V107.595C114.438 107.929 114.481 108.242 114.565 108.576C114.65 108.886 114.794 109.176 114.989 109.431C115.179 109.682 115.455 109.891 115.772 110.057C116.09 110.224 116.513 110.287 116.979 110.287C117.466 110.287 117.868 110.203 118.185 110.057C118.504 109.911 118.758 109.702 118.969 109.431C119.159 109.181 119.308 108.889 119.392 108.576C119.478 108.263 119.519 107.929 119.519 107.595V100.584H121.553C121.594 100.584 121.594 107.678 121.594 107.678ZM130.72 105.425C131.016 105.425 131.292 105.404 131.588 105.362C131.884 105.321 132.139 105.237 132.371 105.133C132.604 105.008 132.795 104.84 132.944 104.632C133.091 104.423 133.176 104.131 133.176 103.797C133.176 103.484 133.112 103.234 132.964 103.046C132.83 102.851 132.648 102.693 132.435 102.587C132.208 102.458 131.955 102.38 131.694 102.358C131.428 102.316 131.159 102.295 130.89 102.296H129.048V105.446C129.069 105.425 130.72 105.425 130.72 105.425ZM127.036 100.584H130.996C131.524 100.584 132.054 100.646 132.562 100.751C133.035 100.853 133.487 101.037 133.896 101.294C134.278 101.544 134.595 101.878 134.828 102.295C135.06 102.712 135.188 103.213 135.188 103.797C135.188 104.611 134.955 105.279 134.489 105.78C134.023 106.301 133.388 106.635 132.584 106.823L135.611 111.789H133.176L130.55 107.032H129.069V111.789H127.036V100.584ZM142.831 106.948L138.554 100.605H141.031L143.889 105.321L146.79 100.605H149.141L144.863 106.948V111.809H142.831V106.948Z" fill="#F7F8F8"/>
</g>
<g clip-path="url(#clip7_54_8)">
<path d="M243.391 97.9188C243.391 97.6622 243.441 97.408 243.539 97.1709C243.638 96.9338 243.782 96.7183 243.963 96.5368C244.145 96.3553 244.36 96.2114 244.598 96.1131C244.835 96.0149 245.089 95.9644 245.346 95.9644H252.988C253.245 95.9644 253.499 96.0149 253.736 96.1131C253.974 96.2114 254.189 96.3553 254.371 96.5368C254.552 96.7183 254.696 96.9338 254.795 97.1709C254.893 97.408 254.943 97.6622 254.943 97.9188V99.4291C254.943 99.6883 254.84 99.9368 254.657 100.12C254.474 100.303 254.225 100.406 253.966 100.406H244.368C244.24 100.406 244.113 100.381 243.994 100.332C243.875 100.283 243.768 100.211 243.677 100.12C243.586 100.029 243.514 99.9216 243.465 99.8031C243.416 99.6845 243.391 99.5574 243.391 99.4291V97.9188ZM243.391 104.049C243.391 103.92 243.416 103.793 243.465 103.675C243.514 103.556 243.586 103.448 243.677 103.358C243.768 103.267 243.875 103.195 243.994 103.146C244.113 103.097 244.24 103.071 244.368 103.071H262.764C263.282 103.071 263.779 103.277 264.146 103.644C264.513 104.01 264.719 104.508 264.719 105.026V110.09C264.719 110.218 264.693 110.345 264.644 110.464C264.595 110.582 264.523 110.69 264.432 110.781C264.342 110.872 264.234 110.944 264.115 110.993C263.997 111.042 263.87 111.067 263.741 111.067H245.346C245.089 111.067 244.835 111.016 244.598 110.918C244.36 110.82 244.145 110.676 243.963 110.495C243.782 110.313 243.638 110.098 243.539 109.861C243.441 109.623 243.391 109.369 243.391 109.113V104.049ZM253.166 114.709C253.166 114.45 253.269 114.202 253.452 114.018C253.636 113.835 253.884 113.732 254.144 113.732H263.741C264 113.732 264.249 113.835 264.432 114.018C264.616 114.202 264.719 114.45 264.719 114.709V115.331C264.719 115.588 264.668 115.842 264.57 116.079C264.472 116.316 264.328 116.532 264.146 116.713C263.965 116.895 263.749 117.039 263.512 117.137C263.275 117.235 263.02 117.286 262.764 117.286H255.121C254.864 117.286 254.61 117.235 254.373 117.137C254.136 117.039 253.92 116.895 253.739 116.713C253.557 116.532 253.413 116.316 253.315 116.079C253.217 115.842 253.166 115.588 253.166 115.331V114.709ZM276.801 109.06H278.855L282.67 115.294H287.341L283.111 108.62C285.458 107.813 286.827 106.004 286.827 103.388C286.827 99.7214 284.259 97.7411 280.127 97.7411H272.717V115.294H276.801V109.06ZM276.801 105.736V101.188H279.906C281.838 101.188 282.817 102.02 282.817 103.462C282.817 104.879 281.839 105.735 279.906 105.735H276.801V105.736ZM294.367 115.562C296.936 115.562 299.283 114.267 300.237 111.798L296.96 110.747C296.593 111.872 295.639 112.458 294.416 112.458C292.925 112.458 291.873 111.456 291.605 109.695H300.335V108.669C300.335 105.027 298.207 102.141 294.295 102.141C290.577 102.141 287.838 105.026 287.838 108.84C287.838 112.849 290.48 115.562 294.367 115.562ZM294.245 105.173C295.688 105.173 296.446 106.151 296.471 107.3H291.725C292.116 105.882 293.047 105.173 294.245 105.173ZM302.552 111.847C302.552 114.487 303.946 115.417 306.734 115.417C307.664 115.417 308.397 115.343 309.082 115.245V112.042C308.641 112.091 308.422 112.116 307.957 112.116C306.979 112.116 306.416 111.921 306.416 110.845V105.637H308.935V102.411H306.416V98.841H302.552V102.411H300.913V105.637H302.552V111.847ZM323.08 108.864C323.08 104.855 320.414 102.141 316.623 102.141C312.808 102.141 310.167 104.855 310.167 108.865C310.167 112.874 312.808 115.563 316.623 115.563C320.414 115.563 323.08 112.873 323.08 108.864ZM314.056 108.864C314.056 106.616 315.058 105.344 316.623 105.344C318.188 105.344 319.192 106.615 319.192 108.865C319.192 111.114 318.188 112.385 316.623 112.385C315.058 112.385 314.056 111.113 314.056 108.864ZM337.169 108.864C337.169 104.855 334.504 102.141 330.713 102.141C326.898 102.141 324.257 104.855 324.257 108.865C324.257 112.874 326.898 115.563 330.713 115.563C334.504 115.563 337.169 112.873 337.169 108.864ZM328.146 108.864C328.146 106.616 329.148 105.344 330.713 105.344C332.279 105.344 333.282 106.615 333.282 108.865C333.282 111.114 332.279 112.385 330.713 112.385C329.148 112.385 328.146 111.113 328.146 108.864ZM342.922 97.7411H339.009V115.294H342.922V97.7411Z" fill="#F7F8F8"/>
</g>
<g clip-path="url(#clip8_54_8)">
<path fill-rule="evenodd" clip-rule="evenodd" d="M458.561 99.7648C458.138 97.2617 455.846 95.587 453.453 96.0297C451.686 96.3568 450.353 97.7488 449.946 99.4608L449.943 99.4723C449.928 99.5346 449.915 99.5986 449.902 99.6617L449.898 99.6839C449.886 99.7461 449.876 99.8083 449.867 99.8706L449.863 99.8946C449.853 99.9646 449.844 100.035 449.837 100.105L449.836 100.119C449.822 100.254 449.816 100.389 449.815 100.524L449.813 100.583L449.815 100.636L449.817 100.716C449.824 100.934 449.845 101.152 449.882 101.373C450.124 102.801 451.427 103.753 452.792 103.501C453.271 103.411 453.713 103.182 454.061 102.841C454.2 102.707 454.375 102.618 454.565 102.583C454.755 102.549 454.951 102.572 455.127 102.649C455.567 102.842 456.055 102.897 456.527 102.809C457.837 102.566 458.729 101.3 458.584 99.9355C458.578 99.8784 458.57 99.8214 458.561 99.7648ZM469.119 96.6243C464.285 96.6243 461.283 98.3319 461.283 101.08C461.283 104.285 464.358 108.658 469.119 108.658C473.806 108.658 476.957 104.235 476.957 101.08C476.957 98.2901 474.027 96.6243 469.119 96.6243ZM488.419 100.372C488.419 100.351 488.417 100.33 488.416 100.309C488.413 100.246 488.408 100.182 488.402 100.119L488.4 100.105C488.393 100.035 488.385 99.9646 488.375 99.8946L488.371 99.8706C488.351 99.7368 488.326 99.6039 488.295 99.4723L488.293 99.4617C487.884 97.7488 486.55 96.3568 484.785 96.0297C482.392 95.5861 480.101 97.2617 479.677 99.7648C479.668 99.8217 479.659 99.8786 479.653 99.9355C479.509 101.301 480.4 102.567 481.711 102.808C482.201 102.9 482.683 102.835 483.111 102.648C483.288 102.571 483.484 102.548 483.674 102.583C483.863 102.617 484.039 102.707 484.177 102.841C484.518 103.173 484.952 103.41 485.445 103.501C486.811 103.753 488.114 102.801 488.356 101.373C488.393 101.152 488.414 100.934 488.421 100.717L488.423 100.636V100.583V100.524C488.422 100.473 488.421 100.422 488.419 100.372ZM476.068 111.185C474.799 110.615 473.093 111.59 471.652 111.825C470.803 111.971 469.962 112.047 469.119 112.055C468.27 112.046 467.424 111.97 466.587 111.826C465.146 111.59 463.44 110.615 462.171 111.186C461.527 111.478 461.329 112.19 461.59 113.039C461.781 113.627 462.113 114.159 462.558 114.588C463.474 115.49 464.647 116.173 465.726 116.605C466.825 117.047 467.971 117.284 469.119 117.292C470.284 117.279 471.435 117.046 472.513 116.605C473.592 116.174 474.765 115.489 475.681 114.588C476.126 114.159 476.458 113.627 476.649 113.039C476.91 112.19 476.711 111.477 476.068 111.185ZM546.845 101.712C544.942 101.712 543.471 102.405 542.404 103.991V102.614C542.403 102.459 542.341 102.31 542.232 102.201C542.122 102.091 541.974 102.03 541.819 102.03H538.028C537.873 102.03 537.725 102.092 537.615 102.201C537.505 102.311 537.444 102.459 537.443 102.614V116.386C537.444 116.541 537.505 116.689 537.615 116.799C537.725 116.908 537.873 116.97 538.028 116.97H541.819C541.896 116.97 541.972 116.955 542.043 116.926C542.114 116.897 542.178 116.854 542.233 116.8C542.287 116.745 542.33 116.681 542.359 116.61C542.389 116.539 542.404 116.463 542.404 116.386V108.895C542.404 107.192 543.009 105.693 544.797 105.693C546.614 105.693 547.163 107.453 547.163 108.895V116.385C547.163 116.54 547.225 116.689 547.334 116.799C547.444 116.908 547.593 116.97 547.748 116.97H551.54C551.695 116.97 551.843 116.908 551.953 116.799C552.062 116.689 552.124 116.541 552.125 116.386V108.606C552.125 105.346 551.201 101.712 546.845 101.712ZM517.481 113.367L516.698 113.366C516.077 113.344 515.803 112.872 515.803 112.234V111.943H515.805V96.9941C515.805 96.839 515.743 96.6902 515.633 96.5805C515.524 96.4709 515.375 96.4092 515.22 96.4092H511.529C511.374 96.4095 511.225 96.4712 511.116 96.5808C511.006 96.6904 510.944 96.8391 510.944 96.9941V111.978C510.944 116.268 513.7 117.263 516.285 117.263C516.641 117.263 516.982 117.239 517.527 117.194C517.674 117.182 517.81 117.115 517.91 117.007C518.009 116.899 518.064 116.758 518.064 116.611V113.952C518.064 113.876 518.049 113.8 518.02 113.729C517.991 113.658 517.948 113.593 517.894 113.539C517.84 113.485 517.775 113.442 517.704 113.412C517.634 113.383 517.558 113.368 517.481 113.367ZM526.923 113.394C524.817 113.394 523.518 111.663 523.518 109.471C523.518 107.365 524.759 105.635 526.865 105.635C528.97 105.635 530.383 107.222 530.383 109.615C530.383 111.98 528.884 113.393 526.923 113.393V113.394ZM534.645 102.03H530.853C530.737 102.03 530.624 102.065 530.528 102.129C530.432 102.193 530.357 102.284 530.313 102.391C530.284 102.461 530.269 102.537 530.269 102.614V104.02C529.345 102.636 527.673 101.712 525.711 101.712C521.328 101.712 518.53 105.145 518.53 109.471C518.53 113.884 521.442 117.287 525.741 117.287C527.845 117.287 529.317 116.393 530.268 114.923V116.385C530.268 116.54 530.33 116.689 530.439 116.799C530.549 116.908 530.698 116.97 530.853 116.97H534.645C534.721 116.97 534.797 116.955 534.868 116.926C534.939 116.897 535.004 116.854 535.058 116.8C535.113 116.745 535.156 116.681 535.185 116.61C535.215 116.539 535.23 116.463 535.229 116.386V102.614C535.23 102.537 535.215 102.461 535.185 102.39C535.156 102.319 535.113 102.254 535.059 102.2C535.004 102.146 534.94 102.103 534.869 102.073C534.798 102.044 534.721 102.029 534.645 102.03ZM500.422 113.394C498.317 113.394 497.019 111.663 497.019 109.471C497.019 107.365 498.26 105.635 500.365 105.635C502.47 105.635 503.884 107.222 503.884 109.615C503.884 111.98 502.384 113.393 500.422 113.393V113.394ZM508.145 102.03H504.353C504.276 102.029 504.2 102.044 504.129 102.074C504.058 102.103 503.994 102.146 503.939 102.2C503.885 102.254 503.842 102.319 503.812 102.39C503.783 102.461 503.768 102.537 503.768 102.614V104.02C502.845 102.636 501.173 101.712 499.212 101.712C494.828 101.712 492.029 105.145 492.029 109.471C492.029 113.884 494.942 117.287 499.24 117.287C501.346 117.287 502.817 116.393 503.768 114.923V116.385C503.768 116.462 503.783 116.538 503.812 116.609C503.842 116.68 503.885 116.744 503.939 116.799C503.993 116.853 504.058 116.896 504.128 116.926C504.199 116.955 504.275 116.97 504.352 116.97H508.145C508.3 116.97 508.448 116.908 508.558 116.799C508.667 116.689 508.729 116.541 508.729 116.386V102.614C508.729 102.459 508.667 102.31 508.558 102.201C508.448 102.092 508.3 102.03 508.145 102.03Z" fill="#F7F8F8"/>
</g>
<g clip-path="url(#clip9_54_8)">
<path d="M748.23 109.86C748.118 109.86 748.008 109.882 747.905 109.926C747.802 109.97 747.709 110.034 747.632 110.115C746.824 110.949 745.768 111.457 744.537 111.457C743.846 111.458 743.166 111.292 742.553 110.972C740.941 110.131 739.899 108.293 740.189 106.246C740.505 104 742.47 102.328 744.672 102.393C745.847 102.428 746.855 102.929 747.635 103.733C747.712 103.814 747.804 103.879 747.907 103.922C748.01 103.966 748.12 103.988 748.232 103.987C748.724 103.987 749.146 103.552 749.146 103.081C749.146 102.862 749.077 102.61 748.899 102.428C747.896 101.379 746.545 100.731 745.099 100.602C741.621 100.293 738.491 103.126 738.383 106.72C738.274 110.332 741.058 113.271 744.537 113.271C746.261 113.271 747.774 112.581 748.899 111.422C749.075 111.241 749.146 110.987 749.146 110.77C749.145 110.297 748.722 109.86 748.23 109.86ZM732.737 107.598C733.877 106.945 734.634 105.732 734.598 104.248C734.549 102.183 732.825 100.575 730.821 100.575H725.277C724.792 100.575 724.398 100.981 724.398 101.481V112.038C724.398 112.499 724.716 112.922 725.159 112.972C725.706 113.035 726.157 112.656 726.157 112.107V109.805C726.157 109.628 726.273 109.475 726.438 109.432L729.554 108.637L730.84 108.3C730.925 108.278 731.015 108.287 731.094 108.326C731.173 108.365 731.235 108.43 731.27 108.511L733.011 112.455C733.153 112.78 733.461 112.971 733.786 112.971C733.993 112.969 734.193 112.892 734.347 112.754C734.641 112.498 734.702 112.054 734.543 111.694L732.737 107.599V107.598ZM726.157 107.225V102.7C726.157 102.487 726.324 102.317 726.528 102.317H730.764C731.994 102.317 732.839 103.188 732.839 104.35C732.839 105.511 732.147 106.35 730.733 106.661L726.607 107.599C726.552 107.611 726.495 107.61 726.44 107.596C726.385 107.583 726.335 107.557 726.291 107.521C726.248 107.485 726.213 107.439 726.19 107.388C726.167 107.337 726.155 107.281 726.157 107.225ZM715.279 101.265C715.093 100.861 714.697 100.619 714.22 100.619C713.743 100.619 713.346 100.861 713.161 101.263L708.307 111.695C708.244 111.824 708.209 111.984 708.209 112.128C708.209 112.623 708.584 112.996 709.084 112.996C709.252 113.001 709.418 112.955 709.56 112.865C709.702 112.774 709.813 112.644 709.88 112.489L710.783 110.56C711.189 110.707 711.606 110.822 712.03 110.903C712.734 111.037 713.443 111.083 714.143 111.075C714.845 111.069 715.536 110.982 716.218 110.866C716.558 110.807 716.893 110.721 717.232 110.65L717.646 110.532L718.556 112.476C718.622 112.633 718.733 112.767 718.877 112.86C719.02 112.953 719.188 113.001 719.358 112.997C719.925 112.997 720.231 112.551 720.231 112.131C720.231 111.984 720.194 111.826 720.138 111.704L715.279 101.265ZM715.952 109.296C715.342 109.4 714.726 109.478 714.116 109.483C713.505 109.488 712.898 109.451 712.312 109.337C712.022 109.283 711.736 109.208 711.457 109.114L712.186 107.555H712.183L713.883 103.926C713.912 103.862 713.959 103.807 714.019 103.769C714.078 103.73 714.147 103.71 714.218 103.71C714.288 103.71 714.358 103.73 714.417 103.769C714.476 103.807 714.523 103.862 714.552 103.926L716.117 107.266L716.195 107.433L716.252 107.555L716.961 109.072L716.863 109.099C716.561 109.165 716.259 109.244 715.952 109.296ZM697.635 102.456C697.823 101.516 697.674 100.563 697.219 99.7736C696.693 98.8648 695.852 98.2509 694.848 98.0448C694.612 97.9962 694.371 97.9724 694.13 97.9737C692.423 97.9737 690.987 99.2059 690.636 100.969C690.444 101.915 690.088 102.822 689.585 103.647C689.576 103.662 689.563 103.675 689.547 103.683C689.532 103.692 689.514 103.696 689.496 103.695C689.477 103.694 689.459 103.688 689.443 103.677C689.427 103.666 689.415 103.651 689.407 103.634L686.061 96.3755C685.598 95.3725 684.774 94.628 683.799 94.334C682.132 93.8285 680.314 94.668 679.567 96.2858L676.104 103.792C676.101 103.799 676.095 103.805 676.088 103.81C676.082 103.814 676.074 103.817 676.066 103.817C676.041 103.817 676.036 103.802 676.033 103.792C675.484 102.393 674.184 101.488 672.719 101.488C672.245 101.488 671.782 101.585 671.342 101.774C670.46 102.153 669.781 102.876 669.424 103.81C669.071 104.731 669.081 105.752 669.452 106.666C670.107 108.281 671.203 109.84 672.621 111.173C672.656 111.205 672.666 111.253 672.645 111.296L671.527 113.723C670.683 115.556 671.393 117.771 673.109 118.663C673.606 118.924 674.159 119.06 674.72 119.061C676.091 119.061 677.36 118.235 677.949 116.959L678.914 114.866C678.924 114.843 678.941 114.826 678.963 114.815C678.986 114.805 679.011 114.803 679.034 114.811C680.197 115.145 681.401 115.318 682.611 115.324C683.906 115.324 685.225 115.126 686.524 114.738C686.548 114.73 686.573 114.731 686.595 114.742C686.618 114.752 686.636 114.769 686.645 114.792L687.6 116.865C688.213 118.192 689.487 119.054 690.852 119.062H690.873C691.434 119.063 691.987 118.927 692.483 118.665C694.198 117.772 694.907 115.551 694.058 113.713L692.852 111.106C692.843 111.086 692.84 111.063 692.845 111.041C692.849 111.019 692.86 110.999 692.877 110.984C695.313 108.659 697.003 105.631 697.635 102.456ZM677.343 114.345L676.472 116.234C676.319 116.572 676.072 116.859 675.761 117.061C675.45 117.264 675.088 117.373 674.717 117.376C674.416 117.376 674.127 117.307 673.855 117.168C672.913 116.686 672.529 115.466 672.998 114.445L673.927 112.431C673.935 112.412 673.949 112.396 673.966 112.385C673.983 112.374 674.002 112.368 674.023 112.367C674.039 112.367 674.059 112.372 674.078 112.386C675.073 113.114 676.149 113.724 677.286 114.202C677.321 114.216 677.339 114.246 677.345 114.262C677.35 114.275 677.353 114.29 677.353 114.304C677.353 114.318 677.349 114.332 677.343 114.345ZM685.843 113.15C685.837 113.163 685.829 113.175 685.818 113.184C685.807 113.194 685.794 113.201 685.781 113.204C684.723 113.493 683.656 113.64 682.607 113.64C677.751 113.64 672.619 110.249 670.921 105.921C670.521 104.9 671.001 103.731 671.993 103.317C672.225 103.22 672.47 103.17 672.719 103.17C673.515 103.17 674.221 103.66 674.519 104.422C675.627 107.249 679.332 109.639 682.607 109.639C683.1 109.639 683.607 109.59 684.113 109.494C684.16 109.485 684.207 109.506 684.225 109.55L685.843 113.057C685.849 113.072 685.852 113.087 685.852 113.104C685.852 113.12 685.849 113.135 685.843 113.15ZM681.872 107.657L682.524 106.244C682.543 106.2 682.574 106.163 682.614 106.137C682.654 106.111 682.7 106.098 682.748 106.098C682.795 106.098 682.842 106.112 682.881 106.138C682.921 106.164 682.953 106.201 682.972 106.244L683.609 107.623C683.626 107.66 683.634 107.7 683.633 107.74C683.632 107.78 683.621 107.819 683.603 107.854C683.585 107.889 683.56 107.919 683.528 107.942C683.496 107.965 683.46 107.98 683.421 107.985C682.975 108.053 682.522 108.065 682.072 108.021C682.033 108.016 681.995 108.002 681.962 107.98C681.929 107.958 681.902 107.928 681.883 107.893C681.863 107.857 681.851 107.817 681.849 107.776C681.847 107.735 681.855 107.695 681.872 107.657ZM691.728 117.168C691.461 117.305 691.166 117.377 690.867 117.376C690.496 117.373 690.134 117.263 689.823 117.061C689.513 116.858 689.267 116.571 689.114 116.234L683.268 103.556C683.228 103.464 683.161 103.385 683.077 103.33C682.993 103.275 682.894 103.246 682.793 103.246C682.692 103.246 682.593 103.275 682.509 103.33C682.424 103.385 682.358 103.464 682.318 103.556L680.505 107.488C680.495 107.511 680.477 107.529 680.454 107.54C680.432 107.55 680.407 107.552 680.383 107.545C679.173 107.116 678.039 106.395 677.187 105.518C677.173 105.503 677.164 105.483 677.161 105.463C677.159 105.442 677.162 105.421 677.171 105.402L681.088 96.9077C681.22 96.6234 681.408 96.3942 681.63 96.2449C682.156 95.8896 682.754 95.7838 683.317 95.9455C683.587 96.0247 683.836 96.161 684.048 96.3452C684.26 96.5293 684.429 96.7569 684.545 97.0125L692.585 114.448C693.056 115.466 692.671 116.687 691.728 117.168ZM692.195 109.344C692.183 109.357 692.168 109.366 692.152 109.372C692.135 109.377 692.118 109.379 692.101 109.376C692.085 109.373 692.07 109.366 692.057 109.356C692.044 109.345 692.034 109.332 692.028 109.317L690.314 105.598C690.306 105.58 690.303 105.561 690.305 105.542C690.307 105.522 690.314 105.504 690.326 105.489C691.295 104.207 691.959 102.747 692.246 101.264C692.428 100.332 693.226 99.6546 694.146 99.6546H694.148C694.305 99.6546 694.464 99.6759 694.621 99.7159C695.638 99.9762 696.256 101.054 696.029 102.168C695.484 104.834 694.16 107.314 692.195 109.344Z" fill="#F7F8F8"/>
</g>
<g clip-path="url(#clip10_54_8)">
<path fill-rule="evenodd" clip-rule="evenodd" d="M871.838 119.958C879.209 119.958 885.186 113.988 885.186 106.625C885.186 99.2613 879.211 93.2915 871.838 93.2915C864.466 93.2915 858.489 99.2613 858.489 106.625C858.489 113.988 864.466 119.958 871.838 119.958ZM880.553 108.94V108.081C880.553 108.062 880.549 108.044 880.541 108.027C880.532 108.011 880.52 107.996 880.506 107.985C880.491 107.974 880.474 107.966 880.455 107.963C880.437 107.959 880.418 107.96 880.4 107.965L876.34 109.139C876.318 109.144 876.299 109.156 876.284 109.172C875.848 109.652 875.479 109.975 875.382 110.06L875.375 110.066C875.122 110.279 874.809 110.396 874.48 110.396H873.01V108.899H874.178C874.208 108.899 874.237 108.888 874.26 108.868L874.411 108.731C874.475 108.671 874.551 108.6 874.643 108.508L874.667 108.485C874.715 108.436 874.767 108.386 874.818 108.329C874.878 108.27 874.937 108.204 874.991 108.14C875.084 108.042 875.172 107.939 875.263 107.83C875.329 107.759 875.39 107.679 875.448 107.597C875.515 107.518 875.579 107.436 875.639 107.352C875.662 107.319 875.686 107.286 875.711 107.252L875.78 107.152C875.824 107.086 875.869 107.017 875.904 106.951C876.067 106.698 876.199 106.426 876.297 106.141L876.309 106.11C876.42 105.8 876.461 105.468 876.428 105.14C876.425 105.071 876.415 105.001 876.4 104.933V104.922C876.394 104.872 876.383 104.823 876.368 104.776C876.319 104.554 876.242 104.332 876.145 104.114C876.112 104.033 876.076 103.954 876.037 103.876C875.949 103.71 875.854 103.549 875.752 103.392C875.732 103.359 875.709 103.325 875.686 103.292L875.633 103.214C875.567 103.112 875.494 103.014 875.422 102.919L875.373 102.855C875.329 102.798 875.283 102.742 875.237 102.687L875.16 102.595C875.089 102.508 875.019 102.426 874.948 102.346C874.707 102.077 874.453 101.82 874.187 101.576C873.946 101.347 873.695 101.129 873.435 100.923L873.366 100.865C873.311 100.824 873.256 100.783 873.202 100.741C873.191 100.733 873.179 100.727 873.167 100.724L873.01 100.679V99.3866C873.01 99.185 872.931 98.9915 872.79 98.8479C872.72 98.7771 872.637 98.7209 872.546 98.6825C872.454 98.6442 872.356 98.6246 872.256 98.6248C872.157 98.6252 872.058 98.6452 871.966 98.6837C871.874 98.7221 871.791 98.7784 871.721 98.8491C871.651 98.9199 871.595 99.0038 871.557 99.096C871.52 99.1882 871.5 99.287 871.501 99.3866V100.258L871.423 100.236L871.21 100.175L871.017 100.122H871.015L871.012 100.121H871.007L869.541 99.7235C869.526 99.7195 869.511 99.7198 869.496 99.7245C869.482 99.7292 869.47 99.7381 869.46 99.75C869.451 99.7619 869.445 99.7763 869.444 99.7913C869.443 99.8064 869.446 99.8214 869.454 99.8346L869.688 100.268C869.702 100.3 869.719 100.334 869.736 100.368L869.769 100.436C869.807 100.513 869.847 100.594 869.883 100.674C869.916 100.745 869.949 100.816 869.987 100.892L870.036 101.001C870.354 101.697 870.615 102.418 870.818 103.156L870.847 103.262L870.863 103.328C870.907 103.501 870.944 103.675 870.972 103.848C870.994 103.967 871.015 104.081 871.025 104.196C871.042 104.326 871.058 104.457 871.064 104.587C871.075 104.706 871.08 104.83 871.08 104.949C871.083 105.252 871.05 105.554 870.982 105.85L870.976 105.868C870.959 105.936 870.94 106.006 870.917 106.073C870.897 106.144 870.871 106.217 870.843 106.292L870.815 106.372L870.809 106.386C870.789 106.44 870.768 106.495 870.743 106.549C870.603 106.877 870.443 107.197 870.264 107.505C870.009 107.956 869.753 108.351 869.573 108.606L869.541 108.653C869.528 108.671 869.516 108.689 869.505 108.707C869.492 108.725 869.485 108.746 869.483 108.768C869.482 108.79 869.486 108.812 869.496 108.832C869.506 108.852 869.522 108.869 869.54 108.88C869.559 108.892 869.581 108.898 869.603 108.899H871.502V110.396H869.582C869.066 110.396 868.589 110.105 868.358 109.637C868.24 109.408 868.192 109.149 868.22 108.893C868.226 108.818 868.17 108.747 868.094 108.747H864.214C864.182 108.747 864.152 108.759 864.129 108.782C864.107 108.804 864.095 108.834 864.095 108.866V108.946C864.094 109.533 864.209 110.114 864.433 110.656C864.657 111.199 864.985 111.692 865.4 112.107C865.814 112.523 866.307 112.852 866.849 113.078C867.391 113.303 867.972 113.419 868.559 113.42H875.516C876.82 113.42 877.56 112.233 878.289 111.066C878.492 110.74 878.694 110.417 878.906 110.121C879.288 109.589 880.209 109.167 880.478 109.052C880.5 109.043 880.518 109.027 880.532 109.007C880.545 108.988 880.553 108.964 880.553 108.94ZM865.133 106.982L865.075 107.073C865.063 107.091 865.057 107.112 865.056 107.133C865.056 107.154 865.061 107.176 865.071 107.194C865.082 107.213 865.097 107.229 865.115 107.239C865.134 107.25 865.155 107.255 865.176 107.255H868.748C868.767 107.255 868.786 107.25 868.803 107.241C868.82 107.232 868.835 107.219 868.846 107.203C868.893 107.132 868.937 107.058 868.976 106.982C869.285 106.465 869.559 105.904 869.66 105.491C869.895 104.485 869.393 102.87 868.814 101.571C868.805 101.551 868.791 101.534 868.773 101.522C868.755 101.51 868.735 101.503 868.713 101.501C868.692 101.5 868.671 101.504 868.652 101.514C868.632 101.524 868.616 101.538 868.605 101.556L865.133 106.982Z" fill="#F7F8F8"/>
<path d="M898.195 113.024C896.988 113.024 895.878 112.754 894.867 112.214C893.883 111.688 893.056 110.91 892.472 109.959C891.887 108.984 891.595 107.892 891.595 106.683C891.595 105.473 891.887 104.387 892.472 103.423C893.056 102.473 893.883 101.695 894.867 101.169C895.878 100.629 896.988 100.358 898.195 100.358C899.401 100.358 900.504 100.629 901.504 101.169C902.49 101.685 903.313 102.466 903.881 103.423C904.466 104.387 904.758 105.473 904.758 106.683C904.758 107.892 904.466 108.985 903.881 109.959C903.307 110.912 902.485 111.691 901.504 112.214C900.504 112.754 899.401 113.024 898.195 113.024ZM898.195 110.276C899.219 110.276 900.035 109.947 900.645 109.289C901.267 108.631 901.578 107.763 901.578 106.683C901.578 105.59 901.267 104.721 900.645 104.076C900.035 103.418 899.219 103.089 898.195 103.089C897.158 103.089 896.33 103.412 895.709 104.058C895.099 104.703 894.794 105.578 894.794 106.683C894.794 107.774 895.099 108.65 895.709 109.307C896.33 109.953 897.158 110.276 898.195 110.276ZM909.624 104.462C909.929 104.005 910.349 103.636 910.886 103.353C911.422 103.071 912.051 102.93 912.769 102.93C913.61 102.93 914.373 103.136 915.055 103.547C915.737 103.958 916.273 104.545 916.664 105.309C917.066 106.072 917.267 106.958 917.267 107.968C917.267 108.979 917.066 109.87 916.663 110.646C916.274 111.409 915.737 112.003 915.054 112.425C914.373 112.837 913.61 113.042 912.77 113.042C912.062 113.042 911.435 112.901 910.885 112.619C910.349 112.337 909.929 111.973 909.625 111.526V115.825H906.498V103.071H909.624V104.463V104.462ZM914.086 107.968C914.086 107.217 913.866 106.63 913.428 106.206C913.001 105.773 912.47 105.555 911.837 105.555C911.215 105.555 910.685 105.773 910.245 106.206C909.819 106.642 909.605 107.235 909.605 107.986C909.605 108.738 909.819 109.331 910.245 109.766C910.453 109.976 910.7 110.143 910.974 110.255C911.247 110.367 911.541 110.422 911.837 110.417C912.459 110.417 912.989 110.2 913.428 109.766C913.866 109.319 914.086 108.72 914.086 107.968ZM928.525 107.828C928.525 108.11 928.506 108.403 928.469 108.708H921.394C921.443 109.319 921.644 109.789 921.997 110.118C922.363 110.435 922.808 110.593 923.332 110.593C924.112 110.593 924.654 110.276 924.959 109.642H928.286C928.116 110.288 927.797 110.886 927.354 111.386C926.9 111.914 926.331 112.329 925.691 112.601C925.02 112.894 924.27 113.042 923.442 113.042C922.442 113.042 921.552 112.837 920.773 112.425C920.006 112.027 919.371 111.415 918.944 110.663C918.505 109.901 918.286 109.007 918.286 107.986C918.286 106.964 918.5 106.072 918.926 105.309C919.352 104.557 919.987 103.945 920.754 103.547C921.534 103.136 922.43 102.93 923.442 102.93C924.429 102.93 925.307 103.13 926.074 103.529C926.825 103.912 927.448 104.506 927.866 105.238C928.305 105.978 928.525 106.841 928.525 107.828ZM925.325 107.035C925.325 106.518 925.142 106.107 924.776 105.802C924.411 105.496 923.954 105.343 923.405 105.343C922.881 105.343 922.437 105.491 922.07 105.784C921.717 106.078 921.497 106.495 921.413 107.035H925.325ZM936.39 102.966C937.585 102.966 938.535 103.342 939.243 104.093C939.962 104.833 940.321 105.854 940.321 107.158V112.901H937.213V107.563C937.213 106.905 937.037 106.395 936.683 106.03C936.329 105.666 935.854 105.485 935.257 105.485C934.66 105.485 934.184 105.667 933.83 106.03C933.477 106.395 933.301 106.906 933.301 107.563V112.901H930.174V103.071H933.301V104.374C933.617 103.941 934.044 103.599 934.581 103.353C935.117 103.095 935.72 102.966 936.39 102.966ZM947.138 113.024C946.199 113.024 945.358 112.878 944.614 112.584C943.871 112.291 943.274 111.855 942.823 111.28C942.384 110.705 942.152 110.012 942.128 109.201H945.456C945.504 109.66 945.669 110.012 945.949 110.259C946.23 110.494 946.596 110.611 947.046 110.611C947.509 110.611 947.876 110.511 948.143 110.311C948.412 110.1 948.546 109.813 948.546 109.448C948.546 109.143 948.437 108.89 948.217 108.691C947.989 108.478 947.722 108.31 947.43 108.198C947 108.026 946.561 107.879 946.114 107.758C945.285 107.51 944.609 107.264 944.085 107.017C943.553 106.765 943.09 106.391 942.732 105.925C942.354 105.444 942.165 104.815 942.165 104.04C942.165 102.889 942.597 101.991 943.463 101.345C944.328 100.687 945.456 100.358 946.845 100.358C948.26 100.358 949.399 100.687 950.264 101.345C951.13 101.991 951.593 102.895 951.654 104.058H948.271C948.247 103.658 948.094 103.347 947.814 103.125C947.534 102.889 947.174 102.772 946.735 102.772C946.357 102.772 946.053 102.871 945.821 103.071C945.59 103.259 945.474 103.535 945.474 103.899C945.474 104.299 945.669 104.61 946.06 104.832C946.449 105.056 947.059 105.297 947.887 105.555C948.717 105.825 949.387 106.084 949.899 106.33C950.423 106.577 950.874 106.934 951.252 107.406C951.629 107.875 951.819 108.479 951.819 109.219C951.819 109.924 951.629 110.564 951.252 111.139C950.886 111.715 950.349 112.173 949.643 112.513C948.936 112.854 948.101 113.024 947.138 113.024ZM963.36 107.828C963.36 108.11 963.341 108.403 963.305 108.708H956.229C956.278 109.319 956.479 109.789 956.832 110.118C957.198 110.435 957.643 110.593 958.167 110.593C958.948 110.593 959.49 110.276 959.795 109.642H963.122C962.951 110.288 962.632 110.885 962.189 111.386C961.736 111.914 961.166 112.33 960.525 112.601C959.855 112.894 959.106 113.042 958.277 113.042C957.277 113.042 956.388 112.837 955.607 112.425C954.84 112.027 954.205 111.415 953.779 110.663C953.341 109.901 953.121 109.007 953.121 107.986C953.121 106.964 953.334 106.072 953.761 105.309C954.187 104.557 954.822 103.945 955.589 103.547C956.369 103.136 957.265 102.93 958.277 102.93C959.264 102.93 960.141 103.13 960.909 103.529C961.66 103.912 962.283 104.506 962.701 105.238C963.141 105.978 963.36 106.841 963.36 107.828ZM960.16 107.035C960.16 106.518 959.977 106.107 959.612 105.802C959.245 105.496 958.789 105.343 958.24 105.343C957.716 105.343 957.271 105.491 956.906 105.784C956.552 106.078 956.333 106.495 956.247 107.035H960.16ZM964.388 107.968C964.388 106.958 964.582 106.072 964.973 105.309C965.374 104.545 965.917 103.958 966.6 103.547C967.283 103.136 968.045 102.93 968.885 102.93C969.605 102.93 970.232 103.071 970.769 103.353C971.317 103.635 971.738 104.005 972.03 104.462V103.071H975.157V112.901H972.03V111.51C971.725 111.967 971.299 112.337 970.75 112.619C970.213 112.901 969.586 113.042 968.867 113.042C968.069 113.05 967.284 112.837 966.6 112.425C965.917 112.003 965.374 111.409 964.973 110.646C964.582 109.871 964.388 108.978 964.388 107.968ZM972.03 107.986C972.03 107.235 971.811 106.641 971.372 106.206C971.169 105.995 970.924 105.828 970.654 105.716C970.383 105.604 970.092 105.549 969.799 105.555C969.178 105.555 968.647 105.773 968.209 106.206C967.782 106.63 967.569 107.217 967.569 107.968C967.569 108.72 967.782 109.319 968.209 109.766C968.647 110.199 969.178 110.417 969.799 110.417C970.421 110.417 970.945 110.2 971.372 109.766C971.811 109.33 972.03 108.738 972.03 107.986Z" fill="#F7F8F8"/>
</g>
<g clip-path="url(#clip11_54_8)">
<path d="M1136.03 112.099C1135.55 112.803 1134.86 113.334 1134.05 113.614C1133.25 113.891 1132.39 113.899 1131.58 113.638C1130.77 113.374 1130.07 112.856 1129.58 112.162C1129.09 111.46 1128.82 110.62 1128.83 109.761C1128.84 108.899 1129.11 108.063 1129.62 107.374C1130.12 106.688 1130.83 106.182 1131.65 105.931C1132.45 105.683 1133.32 105.706 1134.11 105.996C1134.91 106.289 1135.6 106.832 1136.06 107.544L1138.99 105.784C1138.14 104.421 1136.88 103.37 1135.39 102.789C1133.9 102.215 1132.27 102.148 1130.75 102.598C1129.21 103.054 1127.87 103.997 1126.92 105.286C1125.96 106.589 1125.44 108.163 1125.44 109.78C1125.44 111.397 1125.95 112.973 1126.9 114.279C1127.85 115.572 1129.19 116.521 1130.72 116.983C1132.24 117.439 1133.87 117.378 1135.36 116.81C1136.85 116.235 1138.12 115.189 1138.97 113.83L1136.03 112.099ZM1144.08 95.9644H1140.69V116.708H1144.08V109.794C1144.08 108.729 1144.49 107.705 1145.23 106.942C1145.6 106.569 1146.03 106.272 1146.51 106.07C1146.99 105.867 1147.51 105.762 1148.03 105.761C1149.08 105.761 1150.09 106.185 1150.83 106.942C1151.57 107.705 1151.99 108.728 1151.99 109.794V116.709H1155.37V109.121C1155.37 107.79 1154.99 106.487 1154.27 105.368C1153.55 104.259 1152.53 103.385 1151.32 102.855C1150.12 102.33 1148.79 102.176 1147.5 102.412C1146.21 102.652 1145.02 103.27 1144.08 104.187L1144.08 95.9644ZM1120.36 95.9644H1116.97V112.098C1116.97 113.093 1117.25 114.068 1117.78 114.905C1118.3 115.739 1119.05 116.404 1119.95 116.819C1120.84 117.232 1121.82 117.374 1122.79 117.23C1123.76 117.084 1124.66 116.658 1125.39 116.006L1123.76 113.172C1123.6 113.376 1123.4 113.54 1123.17 113.654C1122.94 113.767 1122.68 113.826 1122.43 113.826H1122.05C1121.6 113.826 1121.17 113.643 1120.85 113.32C1120.53 112.993 1120.36 112.554 1120.36 112.098V106.335H1123.75V102.878H1120.36V95.9644ZM1113.02 95.9644C1112.52 95.9644 1112.04 96.166 1111.69 96.5267C1111.33 96.8865 1111.13 97.3751 1111.13 97.8851C1111.13 98.3941 1111.33 98.8827 1111.69 99.2434C1112.04 99.6032 1112.52 99.8058 1113.02 99.8058C1113.52 99.8058 1113.99 99.6032 1114.35 99.2425C1114.7 98.8827 1114.9 98.3941 1114.9 97.8851C1114.9 97.3751 1114.7 96.8874 1114.35 96.5267C1114.17 96.3491 1113.97 96.2078 1113.74 96.1113C1113.51 96.0147 1113.27 95.9648 1113.02 95.9644ZM1114.71 116.708V102.88H1111.32V116.71H1114.71V116.708Z" fill="#F7F8F8"/>
<path fill-rule="evenodd" clip-rule="evenodd" d="M1094.94 116.708H1098.33V112.675H1101.44C1102.51 112.675 1103.58 112.459 1104.57 112.039C1105.57 111.617 1106.47 111.001 1107.23 110.228C1107.99 109.449 1108.59 108.528 1109 107.518C1109.84 105.467 1109.84 103.172 1109 101.121C1108.59 100.111 1107.99 99.1908 1107.23 98.4119C1106.47 97.6379 1105.57 97.0219 1104.57 96.5996C1103.58 96.1805 1102.51 95.9645 1101.44 95.9644H1094.94V116.708ZM1098.33 99.4202H1101.44C1102.71 99.4202 1103.93 99.9364 1104.83 100.855C1105.73 101.781 1106.24 103.025 1106.24 104.319C1106.24 105.618 1105.73 106.863 1104.83 107.782C1104.39 108.235 1103.86 108.595 1103.28 108.842C1102.7 109.088 1102.07 109.215 1101.44 109.217H1098.33L1098.33 99.4202Z" fill="#F7F8F8"/>
</g>
<defs>
<clipPath id="clip0_54_8">
<rect width="160" height="49.75" fill="white" transform="translate(5.15625)"/>
</clipPath>
<clipPath id="clip1_54_8">
<rect width="160" height="49.75" fill="white" transform="translate(213.156)"/>
</clipPath>
<clipPath id="clip2_54_8">
<rect width="160" height="48" fill="white" transform="translate(421.156 0.875)"/>
</clipPath>
<clipPath id="clip3_54_8">
<rect width="160" height="49.75" fill="white" transform="translate(629.156)"/>
</clipPath>
<clipPath id="clip4_54_8">
<rect width="160" height="48" fill="white" transform="translate(837.156 0.875)"/>
</clipPath>
<clipPath id="clip5_54_8">
<rect width="160" height="49.75" fill="white" transform="translate(1045.16)"/>
</clipPath>
<clipPath id="clip6_54_8">
<rect width="160" height="49.75" fill="white" transform="translate(5.15625 81.75)"/>
</clipPath>
<clipPath id="clip7_54_8">
<rect width="160" height="49.75" fill="white" transform="translate(213.156 81.75)"/>
</clipPath>
<clipPath id="clip8_54_8">
<rect width="160" height="48" fill="white" transform="translate(421.156 82.625)"/>
</clipPath>
<clipPath id="clip9_54_8">
<rect width="160" height="49.75" fill="white" transform="translate(629.156 81.75)"/>
</clipPath>
<clipPath id="clip10_54_8">
<rect width="160" height="48" fill="white" transform="translate(837.156 82.625)"/>
</clipPath>
<clipPath id="clip11_54_8">
<rect width="160" height="49.75" fill="white" transform="translate(1045.16 81.75)"/>
</clipPath>
</defs>
</svg>
