<svg width="78" height="23" viewBox="0 0 78 23" fill="none" xmlns="http://www.w3.org/2000/svg">
<path d="M23.5285 10.2969H16.3605L22.5677 6.79296L21.3374 4.70704L15.1293 8.211L18.712 2.14254L16.5794 0.939462L12.9959 7.00615V0H10.5318V7.00615L6.94909 0.939462L4.81561 2.14254L8.39829 8.20923L2.19198 4.70704L0.959932 6.79296L7.16713 10.296H0V12.7048H7.16713L0.960818 16.2079L2.19109 18.293L8.39918 14.7899L4.81561 20.8583L6.94821 22.0614L10.5327 15.9938V23H12.9967V15.8435L16.6459 22.0234L18.6455 20.8946L14.9955 14.7138L21.3357 18.293L22.5677 16.207L16.3614 12.704H23.5276L23.5285 10.2969ZM11.7638 14.7731C11.3242 14.7731 10.889 14.689 10.483 14.5254C10.0779 14.3615 9.70875 14.1202 9.39634 13.815C9.086 13.5124 8.83895 13.1513 8.66952 12.7526C8.50143 12.3562 8.41482 11.93 8.41482 11.4996C8.41482 11.0691 8.50143 10.643 8.66952 10.2465C8.83793 9.84842 9.08523 9.48838 9.39634 9.18496C9.70657 8.87977 10.0762 8.63915 10.4821 8.47462C10.8881 8.31008 11.3242 8.22515 11.7638 8.22515C12.652 8.22515 13.5029 8.57015 14.1313 9.18319C14.4413 9.48463 14.6878 9.84487 14.8563 10.2427C15.0248 10.6406 15.1119 11.0681 15.1125 11.5C15.1125 12.3678 14.7597 13.2011 14.1322 13.815C13.4988 14.4317 12.6486 14.7762 11.7638 14.7748V14.7731ZM29.8784 19.9127V3.08731H33.0365V19.9127H29.8784ZM60.1672 8.47904H63.1827V9.87408C63.8244 8.75858 65.3206 8.1535 66.6022 8.1535C68.1942 8.1535 69.4758 8.82846 70.0697 10.059C70.9951 8.66304 72.2307 8.1535 73.7738 8.1535C75.9348 8.1535 78 9.43177 78 12.4987V19.9118H74.9376V13.1268C74.9376 11.8945 74.3198 10.9648 72.8706 10.9648C71.5171 10.9648 70.7097 11.9883 70.7097 13.2206V19.9136H67.5764V13.1268C67.5764 11.8945 66.9355 10.9648 65.5094 10.9648C64.132 10.9648 63.3245 11.9653 63.3245 13.2206V19.9136H60.1672V8.47904ZM40.1735 20.2444C36.6157 20.2444 34.0399 17.6622 34.0399 14.1954C34.0399 10.7835 36.6077 8.142 40.1735 8.142C43.7562 8.142 46.3072 10.8082 46.3072 14.1954C46.3072 17.6375 43.7296 20.2444 40.1735 20.2444ZM40.1735 10.94C39.2907 10.9418 38.4451 11.285 37.8211 11.8954C37.5135 12.195 37.2688 12.5527 37.1014 12.9478C36.9339 13.3429 36.8472 13.7673 36.8461 14.1963C36.8461 15.0597 37.1971 15.8868 37.8211 16.4972C38.4501 17.1099 39.2942 17.4528 40.1731 17.4528C41.052 17.4528 41.8961 17.1099 42.5251 16.4972C42.8326 16.1978 43.0773 15.8401 43.2447 15.4452C43.4121 15.0503 43.4989 14.626 43.5001 14.1972C43.5001 13.3338 43.1491 12.5058 42.5251 11.8954C41.8962 11.2829 41.0523 10.9401 40.1735 10.94ZM53.0524 20.2435C49.4945 20.2435 46.9188 17.6622 46.9188 14.1954C46.9188 10.7835 49.4866 8.142 53.0524 8.142C56.6351 8.142 59.1869 10.8082 59.1869 14.1954C59.1869 17.6375 56.6076 20.2435 53.0524 20.2435ZM53.0524 10.902C52.1635 10.9019 51.3097 11.2485 50.6734 11.868C50.3623 12.1709 50.1147 12.5326 49.9454 12.9321C49.776 13.3316 49.6881 13.7608 49.6869 14.1945C49.688 14.6285 49.7759 15.0578 49.9452 15.4574C50.1146 15.8571 50.3622 16.219 50.6734 16.522C51.3097 17.1416 52.1634 17.4885 53.0524 17.4885C53.9414 17.4885 54.7952 17.1416 55.4314 16.522C55.7425 16.2191 55.99 15.8573 56.1594 15.4578C56.3288 15.0584 56.4167 14.6292 56.4179 14.1954C56.4168 13.7615 56.329 13.3321 56.1596 12.9325C55.9902 12.5329 55.7427 12.171 55.4314 11.868C54.7952 11.2482 53.9414 10.9021 53.0524 10.902Z" fill="#F7F8F8"/>
</svg>
