<svg width="100" height="24" viewBox="0 0 100 24" fill="none" xmlns="http://www.w3.org/2000/svg">
<path fill-rule="evenodd" clip-rule="evenodd" d="M42.8295 11.4116C43.1134 10.0862 44.0304 9.41156 45.2366 9.41156C46.4313 9.41156 47.3054 10.1164 47.5848 11.4116H42.8295ZM45.3018 7.11644C42.2321 7.11644 40.3223 9.47556 40.3223 12.3618C40.3223 15.3511 42.3625 17.568 45.3955 17.568C47.4866 17.568 48.7554 16.6373 49.5402 15.4658L47.5893 14.2667C47.0982 14.912 46.3125 15.2533 45.4714 15.2533C44.0938 15.2533 43.1714 14.6329 42.8571 13.392H48.0107L48.0089 13.3973L49.8875 13.408C49.9589 13.0809 50.0009 12.744 50.0009 12.3627C50.0009 9.84889 48.3911 7.11733 45.3027 7.11733L45.3018 7.11644ZM33.4679 15.2098C31.7723 15.2098 30.7536 14 30.7536 12.5076C30.7536 11.0142 31.792 9.80445 33.4679 9.80445C35.1429 9.80445 36.1821 11.0142 36.1821 12.5067C36.1821 14 35.1625 15.2098 33.4679 15.2098ZM36.1821 8.82222C35.4554 7.96889 34.4241 7.44622 33.1446 7.44622C30.283 7.44622 28.225 9.71289 28.225 12.5076C28.225 15.3022 30.2643 17.568 33.1446 17.568C34.4241 17.568 35.4554 17.0453 36.1813 16.192V17.3191H38.7098V3.90044H36.1813L36.1821 8.82222ZM57.5696 12.1333C58.2759 12.6133 58.7241 13.336 58.7241 14.288C58.7241 16.2133 57.3937 17.5484 54.9045 17.5484C52.5625 17.5484 51.3062 16.3787 50.8062 15.1973L52.9562 13.9742C52.9562 13.9742 53.2455 15.2507 54.8661 15.2507C55.8687 15.2507 56.1777 14.8187 56.1777 14.4373C56.1777 14.2596 56.1196 13.9351 55.4062 13.6596C53.9723 13.1076 51.2009 12.8596 51.2009 10.3404C51.2009 8.27822 52.8589 7.17867 54.9045 7.17867C56.817 7.17867 58.0455 8.33867 58.5116 9.24089L56.4089 10.4391C56.4089 10.4391 56.0045 9.43733 54.9241 9.43733C53.8437 9.43733 53.7473 10.0462 53.7473 10.2231C53.7473 10.7387 54.2866 10.9502 55.4446 11.2836C56.1304 11.4809 56.8348 11.6604 57.5714 12.1307L57.5696 12.1333ZM100 9.888H97.8196V13.9733C97.8196 15.2498 99.0929 14.9751 100 14.9751V17.2729C100 17.2729 99.5223 17.3511 98.6884 17.3511C96.8366 17.3511 95.3312 16.8009 95.3312 13.9733V9.888H93.6527V7.45245H95.3312V4.70311H97.8196V7.45245H100V9.888ZM64.9107 15.0729C65.9437 15.0729 66.7375 14.5716 67.1393 13.7484L69.2964 15.008C68.4509 16.5173 66.8759 17.5671 64.9107 17.5671C61.9304 17.5671 59.8473 15.2462 59.8473 12.3822C59.8473 9.51911 61.95 7.19733 64.9107 7.19733C66.8473 7.19733 68.4161 8.23022 69.2705 9.71911L67.1179 11.008C66.7089 10.1956 65.9214 9.69244 64.9107 9.69244C63.4054 9.69244 62.3357 10.896 62.3357 12.3822C62.3357 13.8684 63.3955 15.0729 64.9107 15.0729ZM87.6875 15.5084C86.0536 15.5084 85.0705 14.2667 85.0705 12.7342C85.0705 11.2018 86.0723 9.96089 87.6875 9.96089C89.3027 9.96089 90.3045 11.2018 90.3045 12.7342C90.3045 14.2667 89.3223 15.5084 87.6875 15.5084ZM87.9991 7.53956C90.758 7.53956 92.742 9.86578 92.742 12.7342C92.742 15.6027 90.7768 17.928 87.9991 17.928C86.7652 17.928 85.7714 17.392 85.0705 16.5164V21.5876H82.633V7.81511H85.0705V8.952C85.7714 8.07644 86.7652 7.53956 87.9991 7.53956ZM77.9473 17.6729V7.83556H80.3848V17.6729H77.9473ZM73.4054 9.51556C73.8759 8.32356 74.8339 7.64178 76.2768 7.63822V10.472C74.5848 10.3049 73.3625 11.1813 73.4071 13.2507L73.4054 13.2462V17.6729H70.9679V7.83556H73.4054V9.51556ZM77.9473 6.52267V3.90044H80.4652V6.52267H77.9473ZM0 21.8373C0 23.1493 0.841072 24 2.1375 24H8.38214C12.1071 24 15.1554 22.7244 17.2268 20.4916H0V21.8373ZM8.38214 0H2.1375C0.841072 0 0 0.850667 0 2.16267V3.50844H17.2268C15.1554 1.27556 12.1071 0 8.38214 0ZM13.8321 15.4196C13.8321 16.4809 14.5152 17.1698 15.5688 17.1698H19.3098C19.7348 16.104 20.0196 14.9333 20.1518 13.6702H15.5688C14.5152 13.6702 13.8321 14.3582 13.8321 15.4196ZM8.64464 8.58933C8.64464 9.65067 9.32857 10.3387 10.3821 10.3387H20.1518C20.0334 9.13936 19.7504 7.96187 19.3107 6.83911H10.3821C9.32857 6.83911 8.64464 7.528 8.64464 8.58933ZM10.3804 15.4196C10.3804 14.3582 9.69732 13.6702 8.64375 13.6702H0V17.1698H8.64375C9.69732 17.1698 10.3804 16.4809 10.3804 15.4196ZM5.19375 8.58933C5.19375 7.528 4.51072 6.83911 3.45714 6.83911H0V10.3387H3.45714C4.51072 10.3387 5.19375 9.65067 5.19375 8.58933Z" fill="#7E7E7E"/>
</svg>
