<svg width="100" height="23" viewBox="0 0 100 23" fill="none" xmlns="http://www.w3.org/2000/svg">
<path d="M49.887 5.75C45.9819 5.75 43.166 8.3375 43.166 12.2192C43.166 16.1 46.3349 18.6875 50.2401 18.6875C52.5996 18.6875 54.6802 17.7392 55.9672 16.1398L53.2608 14.551C52.5458 15.3454 51.46 15.809 50.2401 15.809C48.5462 15.809 47.1064 14.9102 46.5724 13.4736H56.4836C56.5613 13.0702 56.6072 12.6535 56.6072 12.2148C56.6072 8.3375 53.7913 5.75 49.887 5.75ZM46.5406 10.9604C46.982 9.52731 48.1922 8.625 49.8835 8.625C51.5774 8.625 52.7876 9.52731 53.2255 10.9604H46.5406ZM87.9738 5.75C84.0686 5.75 81.2536 8.3375 81.2536 12.2192C81.2536 16.1 84.4226 18.6875 88.3278 18.6875C90.6864 18.6875 92.7661 17.7392 94.054 16.1398L91.3485 14.551C90.6334 15.3454 89.5477 15.809 88.3278 15.809C86.633 15.809 85.1932 14.9102 84.6592 13.4736H94.5704C94.6481 13.0702 94.694 12.6535 94.694 12.2148C94.694 8.3375 91.879 5.75 87.9738 5.75ZM84.6309 10.9604C85.0732 9.52731 86.2834 8.625 87.9738 8.625C89.6678 8.625 90.878 9.52731 91.3167 10.9604H84.6309ZM70.8261 12.2183C70.8261 14.375 72.2128 15.8125 74.3631 15.8125C75.8205 15.8125 76.9133 15.1402 77.4756 14.0442L80.1926 15.6365C79.0671 17.541 76.9592 18.6875 74.3631 18.6875C70.4544 18.6875 67.643 16.1 67.643 12.2183C67.643 8.3375 70.458 5.75 74.3631 5.75C76.9592 5.75 79.0636 6.89646 80.1926 8.80192L77.4756 10.3933C76.9133 9.29642 75.8205 8.625 74.3631 8.625C72.2163 8.625 70.8261 10.0616 70.8261 12.2183ZM100 1.79754V18.3283H96.816V1.79577H100V1.79754ZM13.0696 0L26.1392 23H0L13.0696 0ZM45.7444 1.79665L35.9435 19.0467L26.1427 1.79665H29.8175L35.9435 12.5783L42.0696 1.79665H45.7444ZM66.5819 6.10915V9.59188C66.2149 9.47856 65.8334 9.41897 65.4494 9.41496C63.3944 9.41496 61.9123 10.8533 61.9123 13.0092V18.3283H58.7292V6.10915H61.9123V9.41585C61.9123 7.59 64.0035 6.10915 66.5819 6.10915Z" fill="#7E7E7E"/>
</svg>
